<?xml version="1.0" encoding="UTF-8"?>
<svg id="Calque_2" data-name="Calque 2" xmlns="http://www.w3.org/2000/svg" xmlns:xlink="http://www.w3.org/1999/xlink" viewBox="0 0 2720.98 1628.59">
  <defs>
    <style>
      .cls-1 {
        fill: url(#Nouvelle_nuance_de_dégradé_1-32);
        stroke: url(#Nouvelle_nuance_de_dégradé_2-18);
      }

      .cls-1, .cls-2, .cls-3, .cls-4, .cls-5, .cls-6, .cls-7, .cls-8, .cls-9, .cls-10, .cls-11, .cls-12, .cls-13, .cls-14, .cls-15, .cls-16, .cls-17, .cls-18, .cls-19, .cls-20, .cls-21, .cls-22, .cls-23, .cls-24, .cls-25, .cls-26, .cls-27, .cls-28, .cls-29, .cls-30, .cls-31, .cls-32, .cls-33, .cls-34, .cls-35, .cls-36, .cls-37, .cls-38, .cls-39, .cls-40, .cls-41, .cls-42, .cls-43, .cls-44, .cls-45, .cls-46, .cls-47, .cls-48, .cls-49, .cls-50, .cls-51, .cls-52, .cls-53, .cls-54, .cls-55, .cls-56, .cls-57, .cls-58, .cls-59, .cls-60, .cls-61, .cls-62, .cls-63, .cls-64, .cls-65, .cls-66 {
        stroke-miterlimit: 10;
      }

      .cls-2 {
        fill: url(#Nouvelle_nuance_de_dégradé_1-40);
        stroke: url(#Nouvelle_nuance_de_dégradé_2-26);
      }

      .cls-3 {
        fill: url(#Nouvelle_nuance_de_dégradé_1-65);
        stroke: url(#Nouvelle_nuance_de_dégradé_2-51);
      }

      .cls-4 {
        fill: url(#Dégradé_sans_nom_8-7);
        stroke: url(#Nouvelle_nuance_de_dégradé_1-8);
      }

      .cls-5 {
        fill: url(#Nouvelle_nuance_de_dégradé_1-52);
        stroke: url(#Nouvelle_nuance_de_dégradé_2-38);
      }

      .cls-6 {
        fill: url(#Nouvelle_nuance_de_dégradé_1-20);
        stroke: url(#Nouvelle_nuance_de_dégradé_2-6);
      }

      .cls-7 {
        fill: url(#Nouvelle_nuance_de_dégradé_1-59);
        stroke: url(#Nouvelle_nuance_de_dégradé_2-45);
      }

      .cls-8 {
        fill: url(#Nouvelle_nuance_de_dégradé_1-43);
        stroke: url(#Nouvelle_nuance_de_dégradé_2-29);
      }

      .cls-9 {
        fill: url(#Dégradé_sans_nom_8-8);
        stroke: url(#Nouvelle_nuance_de_dégradé_1-9);
      }

      .cls-10 {
        fill: url(#Nouvelle_nuance_de_dégradé_1-36);
        stroke: url(#Nouvelle_nuance_de_dégradé_2-22);
      }

      .cls-11 {
        fill: url(#Nouvelle_nuance_de_dégradé_1-44);
        stroke: url(#Nouvelle_nuance_de_dégradé_2-30);
      }

      .cls-12 {
        fill: url(#Dégradé_sans_nom_8-5);
        stroke: url(#Nouvelle_nuance_de_dégradé_1-6);
      }

      .cls-13 {
        fill: url(#Nouvelle_nuance_de_dégradé_1-45);
        stroke: url(#Nouvelle_nuance_de_dégradé_2-31);
      }

      .cls-14 {
        fill: url(#Nouvelle_nuance_de_dégradé_1-58);
        stroke: url(#Nouvelle_nuance_de_dégradé_2-44);
      }

      .cls-15 {
        fill: url(#Nouvelle_nuance_de_dégradé_1-30);
        stroke: url(#Nouvelle_nuance_de_dégradé_2-16);
      }

      .cls-16 {
        fill: url(#Dégradé_sans_nom_8-6);
        stroke: url(#Nouvelle_nuance_de_dégradé_1-7);
      }

      .cls-17 {
        fill: url(#Nouvelle_nuance_de_dégradé_1-39);
        stroke: url(#Nouvelle_nuance_de_dégradé_2-25);
      }

      .cls-18 {
        fill: url(#Nouvelle_nuance_de_dégradé_1-47);
        stroke: url(#Nouvelle_nuance_de_dégradé_2-33);
      }

      .cls-19 {
        fill: url(#Nouvelle_nuance_de_dégradé_1-29);
        stroke: url(#Nouvelle_nuance_de_dégradé_2-15);
      }

      .cls-20 {
        fill: url(#Dégradé_sans_nom_8-9);
        stroke: url(#Nouvelle_nuance_de_dégradé_1-10);
      }

      .cls-21 {
        fill: url(#Dégradé_sans_nom_8-2);
        stroke: url(#Nouvelle_nuance_de_dégradé_1-3);
      }

      .cls-22 {
        fill: url(#Nouvelle_nuance_de_dégradé_1-27);
        stroke: url(#Nouvelle_nuance_de_dégradé_2-13);
      }

      .cls-23 {
        fill: url(#Dégradé_sans_nom_8-3);
        stroke: url(#Nouvelle_nuance_de_dégradé_1-4);
      }

      .cls-24 {
        fill: url(#Dégradé_sans_nom_10);
        stroke: url(#Nouvelle_nuance_de_dégradé_1);
      }

      .cls-25 {
        fill: url(#Nouvelle_nuance_de_dégradé_1-15);
        stroke: url(#Nouvelle_nuance_de_dégradé_2);
      }

      .cls-26 {
        fill: url(#Nouvelle_nuance_de_dégradé_1-33);
        stroke: url(#Nouvelle_nuance_de_dégradé_2-19);
      }

      .cls-27 {
        fill: url(#Nouvelle_nuance_de_dégradé_1-34);
        stroke: url(#Nouvelle_nuance_de_dégradé_2-20);
      }

      .cls-28 {
        fill: url(#Dégradé_sans_nom_8-13);
        stroke: url(#Nouvelle_nuance_de_dégradé_1-14);
      }

      .cls-29 {
        fill: url(#Nouvelle_nuance_de_dégradé_1-19);
        stroke: url(#Nouvelle_nuance_de_dégradé_2-5);
      }

      .cls-30 {
        fill: url(#Nouvelle_nuance_de_dégradé_1-16);
        stroke: url(#Nouvelle_nuance_de_dégradé_2-2);
      }

      .cls-31 {
        fill: url(#Nouvelle_nuance_de_dégradé_1-62);
        stroke: url(#Nouvelle_nuance_de_dégradé_2-48);
      }

      .cls-32 {
        fill: url(#Nouvelle_nuance_de_dégradé_1-26);
        stroke: url(#Nouvelle_nuance_de_dégradé_2-12);
      }

      .cls-33 {
        fill: url(#Nouvelle_nuance_de_dégradé_1-53);
        stroke: url(#Nouvelle_nuance_de_dégradé_2-39);
      }

      .cls-34 {
        fill: url(#Nouvelle_nuance_de_dégradé_1-22);
        stroke: url(#Nouvelle_nuance_de_dégradé_2-8);
      }

      .cls-35 {
        fill: url(#Nouvelle_nuance_de_dégradé_1-37);
        stroke: url(#Nouvelle_nuance_de_dégradé_2-23);
      }

      .cls-36 {
        fill: url(#Nouvelle_nuance_de_dégradé_1-64);
        stroke: url(#Nouvelle_nuance_de_dégradé_2-50);
      }

      .cls-37 {
        fill: url(#Nouvelle_nuance_de_dégradé_1-31);
        stroke: url(#Nouvelle_nuance_de_dégradé_2-17);
      }

      .cls-38 {
        fill: url(#Nouvelle_nuance_de_dégradé_1-21);
        stroke: url(#Nouvelle_nuance_de_dégradé_2-7);
      }

      .cls-39 {
        fill: url(#Nouvelle_nuance_de_dégradé_1-48);
        stroke: url(#Nouvelle_nuance_de_dégradé_2-34);
      }

      .cls-40 {
        fill: url(#Nouvelle_nuance_de_dégradé_1-46);
        stroke: url(#Nouvelle_nuance_de_dégradé_2-32);
      }

      .cls-41 {
        fill: url(#Dégradé_sans_nom_8-11);
        stroke: url(#Nouvelle_nuance_de_dégradé_1-12);
      }

      .cls-42 {
        fill: url(#Nouvelle_nuance_de_dégradé_1-50);
        stroke: url(#Nouvelle_nuance_de_dégradé_2-36);
      }

      .cls-43 {
        fill: url(#Nouvelle_nuance_de_dégradé_1-55);
        stroke: url(#Nouvelle_nuance_de_dégradé_2-41);
      }

      .cls-44 {
        fill: url(#Nouvelle_nuance_de_dégradé_1-56);
        stroke: url(#Nouvelle_nuance_de_dégradé_2-42);
      }

      .cls-45 {
        fill: url(#Nouvelle_nuance_de_dégradé_1-28);
        stroke: url(#Nouvelle_nuance_de_dégradé_2-14);
      }

      .cls-46 {
        fill: url(#Nouvelle_nuance_de_dégradé_1-18);
        stroke: url(#Nouvelle_nuance_de_dégradé_2-4);
      }

      .cls-47 {
        fill: url(#Nouvelle_nuance_de_dégradé_1-54);
        stroke: url(#Nouvelle_nuance_de_dégradé_2-40);
      }

      .cls-48 {
        fill: url(#Nouvelle_nuance_de_dégradé_1-57);
        stroke: url(#Nouvelle_nuance_de_dégradé_2-43);
      }

      .cls-49 {
        fill: url(#Nouvelle_nuance_de_dégradé_1-42);
        stroke: url(#Nouvelle_nuance_de_dégradé_2-28);
      }

      .cls-50 {
        fill: url(#Dégradé_sans_nom_8-10);
        stroke: url(#Nouvelle_nuance_de_dégradé_1-11);
      }

      .cls-51 {
        fill: url(#Nouvelle_nuance_de_dégradé_1-24);
        stroke: url(#Nouvelle_nuance_de_dégradé_2-10);
      }

      .cls-52 {
        fill: url(#Nouvelle_nuance_de_dégradé_1-23);
        stroke: url(#Nouvelle_nuance_de_dégradé_2-9);
      }

      .cls-53 {
        fill: url(#Dégradé_sans_nom_8-4);
        stroke: url(#Nouvelle_nuance_de_dégradé_1-5);
      }

      .cls-54 {
        fill: url(#Nouvelle_nuance_de_dégradé_1-41);
        stroke: url(#Nouvelle_nuance_de_dégradé_2-27);
      }

      .cls-55 {
        fill: url(#Nouvelle_nuance_de_dégradé_1-63);
        stroke: url(#Nouvelle_nuance_de_dégradé_2-49);
      }

      .cls-56 {
        fill: url(#Nouvelle_nuance_de_dégradé_1-17);
        stroke: url(#Nouvelle_nuance_de_dégradé_2-3);
      }

      .cls-57 {
        fill: url(#Nouvelle_nuance_de_dégradé_1-49);
        stroke: url(#Nouvelle_nuance_de_dégradé_2-35);
      }

      .cls-58 {
        fill: url(#Nouvelle_nuance_de_dégradé_1-38);
        stroke: url(#Nouvelle_nuance_de_dégradé_2-24);
      }

      .cls-59 {
        fill: url(#Dégradé_sans_nom_8);
        stroke: url(#Nouvelle_nuance_de_dégradé_1-2);
      }

      .cls-60 {
        fill: url(#Dégradé_sans_nom_8-12);
        stroke: url(#Nouvelle_nuance_de_dégradé_1-13);
      }

      .cls-61 {
        fill: url(#Nouvelle_nuance_de_dégradé_1-66);
        stroke: url(#Nouvelle_nuance_de_dégradé_2-52);
      }

      .cls-62 {
        fill: url(#Nouvelle_nuance_de_dégradé_1-51);
        stroke: url(#Nouvelle_nuance_de_dégradé_2-37);
      }

      .cls-63 {
        fill: url(#Nouvelle_nuance_de_dégradé_1-60);
        stroke: url(#Nouvelle_nuance_de_dégradé_2-46);
      }

      .cls-64 {
        fill: url(#Nouvelle_nuance_de_dégradé_1-61);
        stroke: url(#Nouvelle_nuance_de_dégradé_2-47);
      }

      .cls-65 {
        fill: url(#Nouvelle_nuance_de_dégradé_1-25);
        stroke: url(#Nouvelle_nuance_de_dégradé_2-11);
      }

      .cls-66 {
        fill: url(#Nouvelle_nuance_de_dégradé_1-35);
        stroke: url(#Nouvelle_nuance_de_dégradé_2-21);
      }
    </style>
    <linearGradient id="Dégradé_sans_nom_10" data-name="Dégradé sans nom 10" x1="478.5" y1="835.55" x2="69.16" y2="378.22" gradientUnits="userSpaceOnUse">
      <stop offset=".07" stop-color="#db813e"/>
      <stop offset=".11" stop-color="#d57e3d"/>
      <stop offset=".55" stop-color="#965d39"/>
      <stop offset=".74" stop-color="#7c5036"/>
      <stop offset=".85" stop-color="#734b35"/>
    </linearGradient>
    <linearGradient id="Nouvelle_nuance_de_dégradé_1" data-name="Nouvelle nuance de dégradé 1" x1="152.83" y1="591.8" x2="312.98" y2="591.8" gradientUnits="userSpaceOnUse">
      <stop offset=".07" stop-color="#c9773e"/>
      <stop offset=".31" stop-color="#9a5f39"/>
      <stop offset=".33" stop-color="#975d38"/>
      <stop offset=".5" stop-color="#7c5036"/>
      <stop offset=".6" stop-color="#734b35"/>
      <stop offset=".84" stop-color="#422c25"/>
      <stop offset=".85" stop-color="#422c25"/>
      <stop offset="1" stop-color="#422f25"/>
    </linearGradient>
    <linearGradient id="Dégradé_sans_nom_8" data-name="Dégradé sans nom 8" x1="535.28" y1="784.73" x2="125.94" y2="327.4" gradientUnits="userSpaceOnUse">
      <stop offset=".07" stop-color="#c9773e"/>
      <stop offset=".55" stop-color="#965d39"/>
      <stop offset=".74" stop-color="#7c5036"/>
      <stop offset=".85" stop-color="#734b35"/>
    </linearGradient>
    <linearGradient id="Nouvelle_nuance_de_dégradé_1-2" data-name="Nouvelle nuance de dégradé 1" x1="182.58" y1="529.67" x2="407.7" y2="529.67" xlink:href="#Nouvelle_nuance_de_dégradé_1"/>
    <linearGradient id="Dégradé_sans_nom_8-2" data-name="Dégradé sans nom 8" x1="615.84" y1="712.63" x2="206.5" y2="255.3" xlink:href="#Dégradé_sans_nom_8"/>
    <linearGradient id="Nouvelle_nuance_de_dégradé_1-3" data-name="Nouvelle nuance de dégradé 1" x1="263.64" y1="400.4" x2="427.45" y2="400.4" xlink:href="#Nouvelle_nuance_de_dégradé_1"/>
    <linearGradient id="Dégradé_sans_nom_8-3" data-name="Dégradé sans nom 8" x1="740.6" y1="600.96" x2="331.26" y2="143.63" xlink:href="#Dégradé_sans_nom_8"/>
    <linearGradient id="Nouvelle_nuance_de_dégradé_1-4" data-name="Nouvelle nuance de dégradé 1" x1="332.25" y1="281.12" x2="504.32" y2="281.12" xlink:href="#Nouvelle_nuance_de_dégradé_1"/>
    <linearGradient id="Dégradé_sans_nom_8-4" data-name="Dégradé sans nom 8" x1="643.24" y1="688.11" x2="233.9" y2="230.77" xlink:href="#Dégradé_sans_nom_8"/>
    <linearGradient id="Nouvelle_nuance_de_dégradé_1-5" data-name="Nouvelle nuance de dégradé 1" x1="380.88" y1="432.24" x2="470.36" y2="432.24" xlink:href="#Nouvelle_nuance_de_dégradé_1"/>
    <linearGradient id="Dégradé_sans_nom_8-5" data-name="Dégradé sans nom 8" x1="794.5" y1="552.72" x2="385.17" y2="95.38" xlink:href="#Dégradé_sans_nom_8"/>
    <linearGradient id="Nouvelle_nuance_de_dégradé_1-6" data-name="Nouvelle nuance de dégradé 1" x1="444.78" y1="288.13" x2="590.89" y2="288.13" xlink:href="#Nouvelle_nuance_de_dégradé_1"/>
    <linearGradient id="Dégradé_sans_nom_8-6" data-name="Dégradé sans nom 8" x1="878.31" y1="477.7" x2="468.98" y2="20.37" xlink:href="#Dégradé_sans_nom_8"/>
    <linearGradient id="Nouvelle_nuance_de_dégradé_1-7" data-name="Nouvelle nuance de dégradé 1" x1="580.92" y1="249.95" x2="727.99" y2="249.95" xlink:href="#Nouvelle_nuance_de_dégradé_1"/>
    <linearGradient id="Dégradé_sans_nom_8-7" data-name="Dégradé sans nom 8" x1="997.54" y1="370.98" x2="588.21" y2="-86.35" xlink:href="#Dégradé_sans_nom_8"/>
    <linearGradient id="Nouvelle_nuance_de_dégradé_1-8" data-name="Nouvelle nuance de dégradé 1" x1="783.7" y1="243.8" x2="921.02" y2="243.8" xlink:href="#Nouvelle_nuance_de_dégradé_1"/>
    <linearGradient id="Dégradé_sans_nom_8-8" data-name="Dégradé sans nom 8" x1="1133.05" y1="249.7" x2="723.71" y2="-207.63" xlink:href="#Dégradé_sans_nom_8"/>
    <linearGradient id="Nouvelle_nuance_de_dégradé_1-9" data-name="Nouvelle nuance de dégradé 1" x1="956.64" y1="190.83" x2="1252.38" y2="190.83" xlink:href="#Nouvelle_nuance_de_dégradé_1"/>
    <linearGradient id="Dégradé_sans_nom_8-9" data-name="Dégradé sans nom 8" x1="718.66" y1="620.59" x2="309.33" y2="163.26" xlink:href="#Dégradé_sans_nom_8"/>
    <linearGradient id="Nouvelle_nuance_de_dégradé_1-10" data-name="Nouvelle nuance de dégradé 1" x1="526.88" y1="406.42" x2="575.29" y2="406.42" xlink:href="#Nouvelle_nuance_de_dégradé_1"/>
    <linearGradient id="Dégradé_sans_nom_8-10" data-name="Dégradé sans nom 8" x1="620.42" y1="708.52" x2="211.09" y2="251.19" xlink:href="#Dégradé_sans_nom_8"/>
    <linearGradient id="Nouvelle_nuance_de_dégradé_1-11" data-name="Nouvelle nuance de dégradé 1" x1="423.92" y1="555.5" x2="576.82" y2="555.5" xlink:href="#Nouvelle_nuance_de_dégradé_1"/>
    <linearGradient id="Dégradé_sans_nom_8-11" data-name="Dégradé sans nom 8" x1="678.62" y1="656.44" x2="269.29" y2="199.1" xlink:href="#Dégradé_sans_nom_8"/>
    <linearGradient id="Nouvelle_nuance_de_dégradé_1-12" data-name="Nouvelle nuance de dégradé 1" x1="537.44" y1="511.31" x2="559.12" y2="511.31" xlink:href="#Nouvelle_nuance_de_dégradé_1"/>
    <linearGradient id="Dégradé_sans_nom_8-12" data-name="Dégradé sans nom 8" x1="794.62" y1="552.61" x2="385.29" y2="95.28" xlink:href="#Dégradé_sans_nom_8"/>
    <linearGradient id="Nouvelle_nuance_de_dégradé_1-13" data-name="Nouvelle nuance de dégradé 1" x1="621.41" y1="382.82" x2="664.7" y2="382.82" xlink:href="#Nouvelle_nuance_de_dégradé_1"/>
    <linearGradient id="Dégradé_sans_nom_8-13" data-name="Dégradé sans nom 8" x1="908.09" y1="451.05" x2="498.76" y2="-6.28" xlink:href="#Dégradé_sans_nom_8"/>
    <linearGradient id="Nouvelle_nuance_de_dégradé_1-14" data-name="Nouvelle nuance de dégradé 1" x1="739.99" y1="285.06" x2="833.6" y2="285.06" xlink:href="#Nouvelle_nuance_de_dégradé_1"/>
    <linearGradient id="Nouvelle_nuance_de_dégradé_1-15" data-name="Nouvelle nuance de dégradé 1" x1="409.15" y1="358.94" x2="233.74" y2="257.43" xlink:href="#Nouvelle_nuance_de_dégradé_1"/>
    <linearGradient id="Nouvelle_nuance_de_dégradé_2" data-name="Nouvelle nuance de dégradé 2" x1="248.63" y1="332.34" x2="463.73" y2="332.34" gradientUnits="userSpaceOnUse">
      <stop offset=".31" stop-color="#8e3b00" stop-opacity="0"/>
      <stop offset=".99" stop-color="#d8753e"/>
    </linearGradient>
    <linearGradient id="Nouvelle_nuance_de_dégradé_1-16" data-name="Nouvelle nuance de dégradé 1" x1="579.27" y1="215.78" x2="395.51" y2="109.44" xlink:href="#Nouvelle_nuance_de_dégradé_1"/>
    <linearGradient id="Nouvelle_nuance_de_dégradé_2-2" data-name="Nouvelle nuance de dégradé 2" x1="376.37" y1="185.65" x2="599.63" y2="185.65" xlink:href="#Nouvelle_nuance_de_dégradé_2"/>
    <linearGradient id="Nouvelle_nuance_de_dégradé_1-17" data-name="Nouvelle nuance de dégradé 1" x1="288.01" y1="505.98" x2="11.57" y2="346.01" xlink:href="#Nouvelle_nuance_de_dégradé_1"/>
    <linearGradient id="Nouvelle_nuance_de_dégradé_2-3" data-name="Nouvelle nuance de dégradé 2" x1="0" y1="460.7" x2="327.56" y2="460.7" xlink:href="#Nouvelle_nuance_de_dégradé_2"/>
    <linearGradient id="Nouvelle_nuance_de_dégradé_1-18" data-name="Nouvelle nuance de dégradé 1" x1="673.05" y1="170.75" x2="547.4" y2="98.04" xlink:href="#Nouvelle_nuance_de_dégradé_1"/>
    <linearGradient id="Nouvelle_nuance_de_dégradé_2-4" data-name="Nouvelle nuance de dégradé 2" x1="574.18" y1="135.92" x2="704.22" y2="135.92" xlink:href="#Nouvelle_nuance_de_dégradé_2"/>
    <linearGradient id="Nouvelle_nuance_de_dégradé_1-19" data-name="Nouvelle nuance de dégradé 1" x1="849.81" y1="215.98" x2="662.91" y2="107.82" xlink:href="#Nouvelle_nuance_de_dégradé_1"/>
    <linearGradient id="Nouvelle_nuance_de_dégradé_2-5" data-name="Nouvelle nuance de dégradé 2" x1="663.7" y1="173.88" x2="866.63" y2="173.88" xlink:href="#Nouvelle_nuance_de_dégradé_2"/>
    <linearGradient id="Nouvelle_nuance_de_dégradé_1-20" data-name="Nouvelle nuance de dégradé 1" x1="253.43" y1="737.04" x2="50.6" y2="619.67" xlink:href="#Nouvelle_nuance_de_dégradé_1"/>
    <linearGradient id="Nouvelle_nuance_de_dégradé_2-6" data-name="Nouvelle nuance de dégradé 2" x1="10.24" y1="665.15" x2="271.04" y2="665.15" xlink:href="#Nouvelle_nuance_de_dégradé_2"/>
    <linearGradient id="Nouvelle_nuance_de_dégradé_1-21" data-name="Nouvelle nuance de dégradé 1" x1="229.99" y1="852.34" x2="56.37" y2="751.87" xlink:href="#Nouvelle_nuance_de_dégradé_1"/>
    <linearGradient id="Nouvelle_nuance_de_dégradé_2-7" data-name="Nouvelle nuance de dégradé 2" x1="51.77" y1="794.74" x2="243.64" y2="794.74" xlink:href="#Nouvelle_nuance_de_dégradé_2"/>
    <linearGradient id="Nouvelle_nuance_de_dégradé_1-22" data-name="Nouvelle nuance de dégradé 1" x1="195.76" y1="1028.58" x2="51.89" y2="945.32" xlink:href="#Nouvelle_nuance_de_dégradé_1"/>
    <linearGradient id="Nouvelle_nuance_de_dégradé_2-8" data-name="Nouvelle nuance de dégradé 2" x1="52.23" y1="991.03" x2="191.65" y2="991.03" xlink:href="#Nouvelle_nuance_de_dégradé_2"/>
    <linearGradient id="Nouvelle_nuance_de_dégradé_1-23" data-name="Nouvelle nuance de dégradé 1" x1="247.21" y1="923.56" x2="213.39" y2="903.99" xlink:href="#Nouvelle_nuance_de_dégradé_1"/>
    <linearGradient id="Nouvelle_nuance_de_dégradé_2-9" data-name="Nouvelle nuance de dégradé 2" x1="212.06" y1="922.59" x2="249.75" y2="922.59" xlink:href="#Nouvelle_nuance_de_dégradé_2"/>
    <linearGradient id="Nouvelle_nuance_de_dégradé_1-24" data-name="Nouvelle nuance de dégradé 1" x1="280.28" y1="827.97" x2="153.88" y2="754.82" xlink:href="#Nouvelle_nuance_de_dégradé_1"/>
    <linearGradient id="Nouvelle_nuance_de_dégradé_2-10" data-name="Nouvelle nuance de dégradé 2" x1="133.91" y1="807.91" x2="282.58" y2="807.91" xlink:href="#Nouvelle_nuance_de_dégradé_2"/>
    <linearGradient id="Nouvelle_nuance_de_dégradé_1-25" data-name="Nouvelle nuance de dégradé 1" x1="184.81" y1="1187.55" x2="95.62" y2="1135.93" xlink:href="#Nouvelle_nuance_de_dégradé_1"/>
    <linearGradient id="Nouvelle_nuance_de_dégradé_2-11" data-name="Nouvelle nuance de dégradé 2" x1="93.03" y1="1157.18" x2="210.18" y2="1157.18" xlink:href="#Nouvelle_nuance_de_dégradé_2"/>
    <linearGradient id="Nouvelle_nuance_de_dégradé_1-26" data-name="Nouvelle nuance de dégradé 1" x1="114.21" y1="1218.3" x2="88.09" y2="1203.19" xlink:href="#Nouvelle_nuance_de_dégradé_1"/>
    <linearGradient id="Nouvelle_nuance_de_dégradé_2-12" data-name="Nouvelle nuance de dégradé 2" x1="93.14" y1="1206.48" x2="111.55" y2="1206.48" xlink:href="#Nouvelle_nuance_de_dégradé_2"/>
    <linearGradient id="Nouvelle_nuance_de_dégradé_1-27" data-name="Nouvelle nuance de dégradé 1" x1="1125.47" y1="97.53" x2="979.58" y2="13.11" xlink:href="#Nouvelle_nuance_de_dégradé_1"/>
    <linearGradient id="Nouvelle_nuance_de_dégradé_2-13" data-name="Nouvelle nuance de dégradé 2" x1="973.16" y1="73.14" x2="1117.01" y2="73.14" xlink:href="#Nouvelle_nuance_de_dégradé_2"/>
    <linearGradient id="Nouvelle_nuance_de_dégradé_1-28" data-name="Nouvelle nuance de dégradé 1" x1="1080.45" y1="97.94" x2="1168.86" y2="97.94" xlink:href="#Nouvelle_nuance_de_dégradé_1"/>
    <linearGradient id="Nouvelle_nuance_de_dégradé_2-14" data-name="Nouvelle nuance de dégradé 2" x1="1079.77" y1="98.24" x2="1169.46" y2="98.24" xlink:href="#Nouvelle_nuance_de_dégradé_2"/>
    <linearGradient id="Nouvelle_nuance_de_dégradé_1-29" data-name="Nouvelle nuance de dégradé 1" x1="1188.5" y1="132.79" x2="1350.05" y2="132.79" xlink:href="#Nouvelle_nuance_de_dégradé_1"/>
    <linearGradient id="Nouvelle_nuance_de_dégradé_2-15" data-name="Nouvelle nuance de dégradé 2" x1="1188" y1="133.15" x2="1350.78" y2="133.15" xlink:href="#Nouvelle_nuance_de_dégradé_2"/>
    <linearGradient id="Nouvelle_nuance_de_dégradé_1-30" data-name="Nouvelle nuance de dégradé 1" x1="1337.68" y1="138.57" x2="1442.35" y2="138.57" gradientTransform="translate(860.28 -1187.22) rotate(61.86)" xlink:href="#Nouvelle_nuance_de_dégradé_1"/>
    <linearGradient id="Nouvelle_nuance_de_dégradé_2-16" data-name="Nouvelle nuance de dégradé 2" x1="1337.18" y1="138.57" x2="1443.55" y2="138.57" gradientTransform="translate(860.28 -1187.22) rotate(61.86)" xlink:href="#Nouvelle_nuance_de_dégradé_2"/>
    <linearGradient id="Nouvelle_nuance_de_dégradé_1-31" data-name="Nouvelle nuance de dégradé 1" x1="1471.38" y1="117.7" x2="1525.38" y2="117.7" xlink:href="#Nouvelle_nuance_de_dégradé_1"/>
    <linearGradient id="Nouvelle_nuance_de_dégradé_2-17" data-name="Nouvelle nuance de dégradé 2" x1="1470.87" y1="118.2" x2="1527.52" y2="118.2" xlink:href="#Nouvelle_nuance_de_dégradé_2"/>
    <linearGradient id="Nouvelle_nuance_de_dégradé_1-32" data-name="Nouvelle nuance de dégradé 1" x1="1556.04" y1="127.06" x2="1732.38" y2="127.06" xlink:href="#Nouvelle_nuance_de_dégradé_1"/>
    <linearGradient id="Nouvelle_nuance_de_dégradé_2-18" data-name="Nouvelle nuance de dégradé 2" x1="1555.54" y1="127.16" x2="1733.73" y2="127.16" xlink:href="#Nouvelle_nuance_de_dégradé_2"/>
    <linearGradient id="Nouvelle_nuance_de_dégradé_1-33" data-name="Nouvelle nuance de dégradé 1" x1="191.91" y1="385.01" x2="69.63" y2="314.25" xlink:href="#Nouvelle_nuance_de_dégradé_1"/>
    <linearGradient id="Nouvelle_nuance_de_dégradé_2-19" data-name="Nouvelle nuance de dégradé 2" x1="64.84" y1="353.13" x2="184.81" y2="353.13" xlink:href="#Nouvelle_nuance_de_dégradé_2"/>
    <linearGradient id="Nouvelle_nuance_de_dégradé_1-34" data-name="Nouvelle nuance de dégradé 1" x1="427.24" y1="188.21" x2="289.22" y2="108.34" xlink:href="#Nouvelle_nuance_de_dégradé_1"/>
    <linearGradient id="Nouvelle_nuance_de_dégradé_2-20" data-name="Nouvelle nuance de dégradé 2" x1="297.36" y1="159.86" x2="457.62" y2="159.86" xlink:href="#Nouvelle_nuance_de_dégradé_2"/>
    <linearGradient id="Nouvelle_nuance_de_dégradé_1-35" data-name="Nouvelle nuance de dégradé 1" x1="318.07" y1="273.88" x2="224.42" y2="219.69" xlink:href="#Nouvelle_nuance_de_dégradé_1"/>
    <linearGradient id="Nouvelle_nuance_de_dégradé_2-21" data-name="Nouvelle nuance de dégradé 2" x1="233.13" y1="254.11" x2="306.08" y2="254.11" xlink:href="#Nouvelle_nuance_de_dégradé_2"/>
    <linearGradient id="Nouvelle_nuance_de_dégradé_1-36" data-name="Nouvelle nuance de dégradé 1" x1="290.44" y1="257.66" x2="253.86" y2="236.5" xlink:href="#Nouvelle_nuance_de_dégradé_1"/>
    <linearGradient id="Nouvelle_nuance_de_dégradé_2-22" data-name="Nouvelle nuance de dégradé 2" x1="248.37" y1="244.43" x2="298.09" y2="244.43" xlink:href="#Nouvelle_nuance_de_dégradé_2"/>
    <linearGradient id="Nouvelle_nuance_de_dégradé_1-37" data-name="Nouvelle nuance de dégradé 1" x1="112.68" y1="424.74" x2="53.96" y2="390.76" xlink:href="#Nouvelle_nuance_de_dégradé_1"/>
    <linearGradient id="Nouvelle_nuance_de_dégradé_2-23" data-name="Nouvelle nuance de dégradé 2" x1="50.31" y1="411.64" x2="106.16" y2="411.64" xlink:href="#Nouvelle_nuance_de_dégradé_2"/>
    <linearGradient id="Nouvelle_nuance_de_dégradé_1-38" data-name="Nouvelle nuance de dégradé 1" x1="173.55" y1="438.87" x2="69.57" y2="378.7" xlink:href="#Nouvelle_nuance_de_dégradé_1"/>
    <linearGradient id="Nouvelle_nuance_de_dégradé_2-24" data-name="Nouvelle nuance de dégradé 2" x1="83.31" y1="411.84" x2="191.45" y2="411.84" xlink:href="#Nouvelle_nuance_de_dégradé_2"/>
    <linearGradient id="Nouvelle_nuance_de_dégradé_1-39" data-name="Nouvelle nuance de dégradé 1" x1="270.45" y1="403.07" x2="146.64" y2="331.42" xlink:href="#Nouvelle_nuance_de_dégradé_1"/>
    <linearGradient id="Nouvelle_nuance_de_dégradé_2-25" data-name="Nouvelle nuance de dégradé 2" x1="158.96" y1="376.76" x2="241.15" y2="376.76" xlink:href="#Nouvelle_nuance_de_dégradé_2"/>
    <linearGradient id="Nouvelle_nuance_de_dégradé_1-40" data-name="Nouvelle nuance de dégradé 1" x1="356.43" y1="419.97" x2="202.89" y2="331.12" xlink:href="#Nouvelle_nuance_de_dégradé_1"/>
    <linearGradient id="Nouvelle_nuance_de_dégradé_2-26" data-name="Nouvelle nuance de dégradé 2" x1="208.12" y1="388.75" x2="340.06" y2="388.75" xlink:href="#Nouvelle_nuance_de_dégradé_2"/>
    <linearGradient id="Nouvelle_nuance_de_dégradé_1-41" data-name="Nouvelle nuance de dégradé 1" x1="176.84" y1="604.6" x2="41.42" y2="526.23" xlink:href="#Nouvelle_nuance_de_dégradé_1"/>
    <linearGradient id="Nouvelle_nuance_de_dégradé_2-27" data-name="Nouvelle nuance de dégradé 2" x1="44.7" y1="573.4" x2="160.31" y2="573.4" xlink:href="#Nouvelle_nuance_de_dégradé_2"/>
    <linearGradient id="Nouvelle_nuance_de_dégradé_1-42" data-name="Nouvelle nuance de dégradé 1" x1="154.12" y1="704.04" x2="39.99" y2="638" xlink:href="#Nouvelle_nuance_de_dégradé_1"/>
    <linearGradient id="Nouvelle_nuance_de_dégradé_2-28" data-name="Nouvelle nuance de dégradé 2" x1="51.09" y1="669.73" x2="150.57" y2="669.73" xlink:href="#Nouvelle_nuance_de_dégradé_2"/>
    <linearGradient id="Nouvelle_nuance_de_dégradé_1-43" data-name="Nouvelle nuance de dégradé 1" x1="819.56" y1="139.45" x2="728.48" y2="86.75" gradientTransform="translate(9.21 318.24) rotate(-23.44)" xlink:href="#Nouvelle_nuance_de_dégradé_1"/>
    <linearGradient id="Nouvelle_nuance_de_dégradé_2-29" data-name="Nouvelle nuance de dégradé 2" x1="723.91" y1="127.45" x2="805.59" y2="127.45" gradientTransform="translate(9.21 318.24) rotate(-23.44)" xlink:href="#Nouvelle_nuance_de_dégradé_2"/>
    <linearGradient id="Nouvelle_nuance_de_dégradé_1-44" data-name="Nouvelle nuance de dégradé 1" x1="747.78" y1="161.09" x2="662.49" y2="111.74" xlink:href="#Nouvelle_nuance_de_dégradé_1"/>
    <linearGradient id="Nouvelle_nuance_de_dégradé_2-30" data-name="Nouvelle nuance de dégradé 2" x1="663.62" y1="141.67" x2="745" y2="141.67" xlink:href="#Nouvelle_nuance_de_dégradé_2"/>
    <linearGradient id="Nouvelle_nuance_de_dégradé_1-45" data-name="Nouvelle nuance de dégradé 1" x1="1064.68" y1="195.77" x2="808.78" y2="47.68" xlink:href="#Nouvelle_nuance_de_dégradé_1"/>
    <linearGradient id="Nouvelle_nuance_de_dégradé_2-31" data-name="Nouvelle nuance de dégradé 2" x1="781.22" y1="149.77" x2="1094.85" y2="149.77" xlink:href="#Nouvelle_nuance_de_dégradé_2"/>
    <linearGradient id="Nouvelle_nuance_de_dégradé_1-46" data-name="Nouvelle nuance de dégradé 1" x1="1737.88" y1="123.29" x2="1833.38" y2="123.29" xlink:href="#Nouvelle_nuance_de_dégradé_1"/>
    <linearGradient id="Nouvelle_nuance_de_dégradé_2-32" data-name="Nouvelle nuance de dégradé 2" x1="1737.32" y1="123.84" x2="1836.14" y2="123.84" xlink:href="#Nouvelle_nuance_de_dégradé_2"/>
    <linearGradient id="Nouvelle_nuance_de_dégradé_1-47" data-name="Nouvelle nuance de dégradé 1" x1="1807.38" y1="140.88" x2="1856.88" y2="140.88" xlink:href="#Nouvelle_nuance_de_dégradé_1"/>
    <linearGradient id="Nouvelle_nuance_de_dégradé_2-33" data-name="Nouvelle nuance de dégradé 2" x1="1806.15" y1="140.88" x2="1859.2" y2="140.88" xlink:href="#Nouvelle_nuance_de_dégradé_2"/>
    <linearGradient id="Nouvelle_nuance_de_dégradé_1-48" data-name="Nouvelle nuance de dégradé 1" x1="1416.71" y1="124.72" x2="1485.88" y2="124.72" xlink:href="#Nouvelle_nuance_de_dégradé_1"/>
    <linearGradient id="Nouvelle_nuance_de_dégradé_2-34" data-name="Nouvelle nuance de dégradé 2" x1="1416.21" y1="124.98" x2="1486.9" y2="124.98" xlink:href="#Nouvelle_nuance_de_dégradé_2"/>
    <linearGradient id="Nouvelle_nuance_de_dégradé_1-49" data-name="Nouvelle nuance de dégradé 1" x1="1189.75" y1="182.52" x2="1211.88" y2="182.52" xlink:href="#Nouvelle_nuance_de_dégradé_1"/>
    <linearGradient id="Nouvelle_nuance_de_dégradé_2-35" data-name="Nouvelle nuance de dégradé 2" x1="1189.25" y1="182.39" x2="1212.98" y2="182.39" xlink:href="#Nouvelle_nuance_de_dégradé_2"/>
    <linearGradient id="Nouvelle_nuance_de_dégradé_1-50" data-name="Nouvelle nuance de dégradé 1" x1="338.52" y1="183.61" x2="209.46" y2="108.92" xlink:href="#Nouvelle_nuance_de_dégradé_1"/>
    <linearGradient id="Nouvelle_nuance_de_dégradé_2-36" data-name="Nouvelle nuance de dégradé 2" x1="210.31" y1="147.07" x2="367.47" y2="147.07" xlink:href="#Nouvelle_nuance_de_dégradé_2"/>
    <linearGradient id="Nouvelle_nuance_de_dégradé_1-51" data-name="Nouvelle nuance de dégradé 1" x1="184.17" y1="293.64" x2="56.68" y2="219.86" xlink:href="#Nouvelle_nuance_de_dégradé_1"/>
    <linearGradient id="Nouvelle_nuance_de_dégradé_2-37" data-name="Nouvelle nuance de dégradé 2" x1="32.47" y1="264.65" x2="175.57" y2="264.65" xlink:href="#Nouvelle_nuance_de_dégradé_2"/>
    <linearGradient id="Nouvelle_nuance_de_dégradé_1-52" data-name="Nouvelle nuance de dégradé 1" x1="307.19" y1="314.77" x2="155.68" y2="227.1" xlink:href="#Nouvelle_nuance_de_dégradé_1"/>
    <linearGradient id="Nouvelle_nuance_de_dégradé_2-38" data-name="Nouvelle nuance de dégradé 2" x1="153.42" y1="285.41" x2="291.5" y2="285.41" xlink:href="#Nouvelle_nuance_de_dégradé_2"/>
    <linearGradient id="Nouvelle_nuance_de_dégradé_1-53" data-name="Nouvelle nuance de dégradé 1" x1="326.61" y1="237.85" x2="208.48" y2="169.49" xlink:href="#Nouvelle_nuance_de_dégradé_1"/>
    <linearGradient id="Nouvelle_nuance_de_dégradé_2-39" data-name="Nouvelle nuance de dégradé 2" x1="212.51" y1="199.82" x2="327.53" y2="199.82" xlink:href="#Nouvelle_nuance_de_dégradé_2"/>
    <linearGradient id="Nouvelle_nuance_de_dégradé_1-54" data-name="Nouvelle nuance de dégradé 1" x1="395.16" y1="146.42" x2="274.29" y2="76.47" xlink:href="#Nouvelle_nuance_de_dégradé_1"/>
    <linearGradient id="Nouvelle_nuance_de_dégradé_2-40" data-name="Nouvelle nuance de dégradé 2" x1="263.65" y1="118.63" x2="403.39" y2="118.63" xlink:href="#Nouvelle_nuance_de_dégradé_2"/>
    <linearGradient id="Nouvelle_nuance_de_dégradé_1-55" data-name="Nouvelle nuance de dégradé 1" x1="179.88" y1="243.96" x2="37.16" y2="161.37" xlink:href="#Nouvelle_nuance_de_dégradé_1"/>
    <linearGradient id="Nouvelle_nuance_de_dégradé_2-41" data-name="Nouvelle nuance de dégradé 2" x1="44.87" y1="217.93" x2="150.53" y2="217.93" xlink:href="#Nouvelle_nuance_de_dégradé_2"/>
    <linearGradient id="Nouvelle_nuance_de_dégradé_1-56" data-name="Nouvelle nuance de dégradé 1" x1="242.15" y1="219.86" x2="87.95" y2="130.62" xlink:href="#Nouvelle_nuance_de_dégradé_1"/>
    <linearGradient id="Nouvelle_nuance_de_dégradé_2-42" data-name="Nouvelle nuance de dégradé 2" x1="82.92" y1="190.11" x2="224.91" y2="190.11" xlink:href="#Nouvelle_nuance_de_dégradé_2"/>
    <linearGradient id="Nouvelle_nuance_de_dégradé_1-57" data-name="Nouvelle nuance de dégradé 1" x1="258.09" y1="169.64" x2="161.35" y2="113.65" xlink:href="#Nouvelle_nuance_de_dégradé_1"/>
    <linearGradient id="Nouvelle_nuance_de_dégradé_2-43" data-name="Nouvelle nuance de dégradé 2" x1="155.72" y1="148.93" x2="266.95" y2="148.93" xlink:href="#Nouvelle_nuance_de_dégradé_2"/>
    <linearGradient id="Nouvelle_nuance_de_dégradé_1-58" data-name="Nouvelle nuance de dégradé 1" x1="216.04" y1="135.34" x2="151.08" y2="97.75" xlink:href="#Nouvelle_nuance_de_dégradé_1"/>
    <linearGradient id="Nouvelle_nuance_de_dégradé_2-44" data-name="Nouvelle nuance de dégradé 2" x1="145.65" y1="125.95" x2="221.65" y2="125.95" xlink:href="#Nouvelle_nuance_de_dégradé_2"/>
    <linearGradient id="Nouvelle_nuance_de_dégradé_1-59" data-name="Nouvelle nuance de dégradé 1" x1="133.06" y1="192.41" x2="68.23" y2="154.89" xlink:href="#Nouvelle_nuance_de_dégradé_1"/>
    <linearGradient id="Nouvelle_nuance_de_dégradé_2-45" data-name="Nouvelle nuance de dégradé 2" x1="72.65" y1="172.21" x2="127.55" y2="172.21" xlink:href="#Nouvelle_nuance_de_dégradé_2"/>
    <linearGradient id="Nouvelle_nuance_de_dégradé_1-60" data-name="Nouvelle nuance de dégradé 1" x1="169.44" y1="133.84" x2="100.71" y2="94.07" xlink:href="#Nouvelle_nuance_de_dégradé_1"/>
    <linearGradient id="Nouvelle_nuance_de_dégradé_2-46" data-name="Nouvelle nuance de dégradé 2" x1="97.93" y1="127.25" x2="176.07" y2="127.25" xlink:href="#Nouvelle_nuance_de_dégradé_2"/>
    <linearGradient id="Nouvelle_nuance_de_dégradé_1-61" data-name="Nouvelle nuance de dégradé 1" x1="137.84" y1="152.54" x2="65.41" y2="110.63" xlink:href="#Nouvelle_nuance_de_dégradé_1"/>
    <linearGradient id="Nouvelle_nuance_de_dégradé_2-47" data-name="Nouvelle nuance de dégradé 2" x1="71.45" y1="140.86" x2="127.61" y2="140.86" xlink:href="#Nouvelle_nuance_de_dégradé_2"/>
    <linearGradient id="Nouvelle_nuance_de_dégradé_1-62" data-name="Nouvelle nuance de dégradé 1" x1="123.06" y1="1062.22" x2="62.54" y2="1027.19" xlink:href="#Nouvelle_nuance_de_dégradé_1"/>
    <linearGradient id="Nouvelle_nuance_de_dégradé_2-48" data-name="Nouvelle nuance de dégradé 2" x1="60.38" y1="1056.23" x2="127.67" y2="1056.23" xlink:href="#Nouvelle_nuance_de_dégradé_2"/>
    <linearGradient id="Nouvelle_nuance_de_dégradé_1-63" data-name="Nouvelle nuance de dégradé 1" x1="146.84" y1="948.51" x2="47.82" y2="891.2" xlink:href="#Nouvelle_nuance_de_dégradé_1"/>
    <linearGradient id="Nouvelle_nuance_de_dégradé_2-49" data-name="Nouvelle nuance de dégradé 2" x1="63.8" y1="915.82" x2="140.82" y2="915.82" xlink:href="#Nouvelle_nuance_de_dégradé_2"/>
    <linearGradient id="Nouvelle_nuance_de_dégradé_1-64" data-name="Nouvelle nuance de dégradé 1" x1="120.64" y1="615.74" x2="68.43" y2="585.52" xlink:href="#Nouvelle_nuance_de_dégradé_1"/>
    <linearGradient id="Nouvelle_nuance_de_dégradé_2-50" data-name="Nouvelle nuance de dégradé 2" x1="70.31" y1="594.13" x2="127.32" y2="594.13" xlink:href="#Nouvelle_nuance_de_dégradé_2"/>
    <linearGradient id="Nouvelle_nuance_de_dégradé_1-65" data-name="Nouvelle nuance de dégradé 1" x1="619.53" y1="148.29" x2="488.52" y2="72.48" gradientTransform="translate(31.17 -124.3) rotate(12.15)" xlink:href="#Nouvelle_nuance_de_dégradé_1"/>
    <linearGradient id="Nouvelle_nuance_de_dégradé_2-51" data-name="Nouvelle nuance de dégradé 2" x1="492.91" y1="114.17" x2="636.87" y2="114.17" gradientTransform="translate(31.17 -124.3) rotate(12.15)" xlink:href="#Nouvelle_nuance_de_dégradé_2"/>
    <linearGradient id="Nouvelle_nuance_de_dégradé_1-66" data-name="Nouvelle nuance de dégradé 1" x1="-119.58" y1="-109.69" x2="-157.07" y2="-131.38" gradientTransform="translate(216.1 655.86) rotate(-87.01)" xlink:href="#Nouvelle_nuance_de_dégradé_1"/>
    <linearGradient id="Nouvelle_nuance_de_dégradé_2-52" data-name="Nouvelle nuance de dégradé 2" x1="-167.83" y1="-115.64" x2="-104.37" y2="-115.64" gradientTransform="translate(216.1 655.86) rotate(-87.01)" xlink:href="#Nouvelle_nuance_de_dégradé_2"/>
  </defs>
  <path class="cls-24" d="M156.22,517.22c-12.34,17.5,18.85,101,18.85,101l122.81,122s-19-132.5,0-153,14-59.5,14-59.5l-111.83-21.5,24.35-62-68.19,73Z"/>
  <path class="cls-59" d="M208.34,429.22s-31.11,23.5-24.28,53.5,85.64,132.5,85.64,132.5l137.19,32.5-51.52-131.5s-.48-101.53-57.48-104.52-89.54,17.52-89.54,17.52Z"/>
  <path class="cls-21" d="M317.38,271.22c-17.5,9.5-44.5,24.5-44.5,24.5l-8.73,66.39,91.21,167.46h71.02s-64.5-76.88-40-117.86-53.61-79.79-53.61-79.79l-20.29-60.7h4.91Z"/>
  <path class="cls-23" d="M436.88,177.72s-64.04-55.52-81.52-28.76c-17.48,26.76-22.59,80.26-22.59,80.26l170.11,189.5s-41-107-29.5-131-36.5-110-36.5-110Z"/>
  <polygon class="cls-53" points="381.38 411.41 381.38 471.47 469.38 482.72 425.38 411.71 437.38 382.19 381.38 411.41"/>
  <polygon class="cls-12" points="546.38 166.93 469.38 190.32 445.38 271.22 554.38 326.86 574.61 411.71 590.38 287.72 541.48 163.24 546.38 166.93"/>
  <path class="cls-16" d="M647.38,156.72l-42.67-32-23.17,16.95s-5.59,141.82,57.62,185.19l80.22,47.33s-71-100.97-40-146.97l48,66.51-6.67-107.86-41.44-50.25-31.89,21.1Z"/>
  <path class="cls-4" d="M865.88,132.79l-81.59,15.55,27.09,122.88,80,94-30.67-94,41.33-17.06s48.67-71.05-12-112.5-24.17-8.88-24.17-8.88Z"/>
  <path class="cls-9" d="M1168.38,96.22l-87.94-33.25s-139.73,62.58-106.4,129.92,12,94.83,12,94.83l-26.67,29.24,121.06-74.04,72.27,37.27-53.33-116.96,77.33-22.36,74.67-20.25-39.5-36.6-43.5,12.19Z"/>
  <polygon class="cls-20" points="574.61 432.46 527.38 352.92 527.38 460.85 574.61 432.46"/>
  <polygon class="cls-50" points="510.38 537.22 455.88 506.22 469.38 565.72 425.38 565.72 476.38 605.22 574.61 582.22 502.88 565.72 510.38 537.22"/>
  <polygon class="cls-41" points="558.62 499.56 538.38 529.22 558.62 529.22 558.62 492.89 558.62 499.56"/>
  <polygon class="cls-60" points="629.11 400.4 622.05 365.22 664.2 374.19 664.12 388.23 629.11 400.4"/>
  <polygon class="cls-28" points="765.04 217.79 741.38 280.2 775.38 316.97 741.38 338.22 832.72 352.92 765.04 217.79"/>
  <path class="cls-25" d="M343.6,202.78s-85.5-12.9-94,15.55,101.5,110.91,101,137.18l19,108.47s56.5-87.28,52-116.74-53-109.47-53-109.47l93,63.91-51-69.83-67-29.07Z"/>
  <path class="cls-30" d="M578.88,107.28s-12-25.29-64.5-17.42-95.77-19.71-115.64,4.08-21.86,45.84-21.86,45.84c0,0,28,63.63,79,77.29s53,70.66,53,70.66l-10.5-115.47s98.5,11.47,100.5,49.47c0,0,4-107.9-20-114.45s0,0,0,0"/>
  <path class="cls-56" d="M304.88,401.22s-97-86.5-173-71.5S.88,344.72.88,344.72c0,0,130,217,168,211s83,13,90,38l-58.83-132.87,126.83,37.87-22-97.5Z"/>
  <path class="cls-46" d="M574.61,42.03s62.77,105.38,58.27,133.04l.23,54.16s87.27-71.23,67.77-109.37-120-77.83-120-77.83"/>
  <path class="cls-29" d="M843.38,140.63s-41.5-50.3-92-53.1-85.33,1.5-85.33,1.5c0,0-11.17,56.75,21.33,88.22s93.81,42.47,90.66,80.47l-13.05-76.09,100.9,47.09-22.5-88.1Z"/>
  <path class="cls-6" d="M190.95,607.56c10.93,39.17,22.06,112,22.06,112l56.24,34.12h-130.37S5.88,715.72,10.88,684.72s60-107.17,60-107.17c0,0,109.14-9.17,120.07,30Z"/>
  <path class="cls-38" d="M52.75,745.72l81.87-27.66s33.26,83.67,58.26,114.67,47.77,38.83,47.77,38.83h-114.15l-42.69-98.67-31.06-27.17Z"/>
  <polygon class="cls-34" points="52.75 971.56 78.38 1056.22 184.31 1079.56 83.81 952.89 156.22 950.22 159.81 983.72 190.95 930.22 140 903.56 70.88 902.22 52.75 971.56"/>
  <polygon class="cls-52" points="249.13 902.22 213.01 902.22 240.65 942.22 249.13 902.22"/>
  <polygon class="cls-51" points="213.01 745.72 153.92 745.72 134.63 787.01 269.25 817.09 274 866.22 282.05 805.97 213.01 745.72"/>
  <polygon class="cls-65" points="93.69 1132.89 124.83 1108.22 156.22 1166.22 208.34 1166.22 140 1206.22 93.69 1132.89"/>
  <polygon class="cls-32" points="97.6 1184.89 93.69 1230.22 110.88 1229.72 97.6 1184.89"/>
  <path class="cls-22" d="M1061.72.58l-87.67,11.64s96.83,136.5,141.83,133.5c0,0-83.83-84.19-70.92-96.1s16.75-49.05,16.75-49.05Z"/>
  <path class="cls-45" d="M1080.45,62.97c9.72,22.7,8.56,31.72,27.96,44.1s31.08,41.27,31.08,41.27l29.38-56.06-38.42-44.75-49.99,15.44Z"/>
  <path class="cls-19" d="M1188.72,84.03s-4.17,49.79,24,61.74c28.17,11.95,56,17.46,56,17.46l25.33,36.63,13.33-64.24,42.67,6.32-16-48.01-73.33-28.22-72,18.32Z"/>
  <path class="cls-15" d="M1358.19,71.76s32.7-36.2,49.57-26.51c16.87,9.69,25.78,48.21,25.78,48.21l-16.87,57.4-25.33-45.8-12.8,46.53s-46.99-44.99-33.32-62.32,12.97-17.52,12.97-17.52Z"/>
  <path class="cls-37" d="M1510.38,84.03s-39.5-2.04-39,5.83,0,37.37,0,37.37l54,24.38s-30.5-31.88-19.5-42.88,4.5-24.69,4.5-24.69Z"/>
  <path class="cls-1" d="M1593.38,83.79s-41.5,10.88-37,33.9,31,54.45,31,54.45l42-36.52s95.5-12.87,103,4.61c0,0-78.5-70.38-139-56.45Z"/>
  <path class="cls-26" d="M87.88,284.06c-31,13.67-21,87.67-21,87.67,0,0,23,43,68,53,0,0-25-35.73-20-45.87l69.39,45.87s2.29-126.22-28.05-137.61-68.34-3.05-68.34-3.05Z"/>
  <path class="cls-27" d="M305.05,71.12l-7.17,61.61,108.5,121.44s-89.5-129.44,49.5-123.44c0,0-97-66-115-65s-35.83,5.39-35.83,5.39Z"/>
  <path class="cls-66" d="M281.88,198.95s-50.37-20.02-48.19,2.03c2.19,22.05,16.19,87.89,39.19,100.73l32,15.25s-32-57.8-14.5-67.84c17.5-10.04-8.5-50.18-8.5-50.18Z"/>
  <path class="cls-10" d="M297.88,252.72c-15-7-42.11-26.78-49.05-9.89"/>
  <path class="cls-35" d="M74.42,374.19s-29.54,8.53-22.54,27.03,54,48,54,48c0,0-21.57-14.53-17.28-37.52s-14.18-37.52-14.18-37.52Z"/>
  <path class="cls-58" d="M83.88,350.72c-2,29,37.72,91.5,37.72,91.5l17.28,64s67-71.5,49-103.5-70-105-88-81-16,29-16,29Z"/>
  <path class="cls-17" d="M210.83,271.22s-74.8,6.5-43.88,60,75.93,138.5,72.93,151.5c0,0,5-143.73-10.5-155.87s-18.55-55.63-18.55-55.63Z"/>
  <path class="cls-2" d="M264.15,293.95s-74.02-4.96-51.15,32.91,126.37,155.87,126.37,155.87l-13.5-117-61.73-71.77Z"/>
  <path class="cls-54" d="M124.83,495.56s-35.95-32.83-54.95-21.83-33,73-19,93,77,12,85,44,18.04,62.83,18.04,62.83c0,0,10.96-85.83,2.96-109.83s-30.38-64.83-30.38-64.83l-1.68-3.33Z"/>
  <path class="cls-49" d="M60.88,593.72l54,15.83,24,76.67s-20-32.5-28-39.5-14.57-2.67-13.28,14.17,52.22,75.33,52.22,75.33c0,0-44.93,29.5-79.93-15.5s-9-123.83-9-123.83"/>
  <path class="cls-8" d="M769.69,68.43s-55.11,7.38-60,32.56c-4.89,25.17,25.5,42.47,60.5,45.26s50.93,20.68,50.93,20.68l-18.89-43.56-32.54-54.94Z"/>
  <path class="cls-11" d="M680.38,89.86s-23.5,4.36-14,27.61,75,73.16,75,73.16c0,0-40.5-46.4-29-64.65s-32-36.12-32-36.12Z"/>
  <path class="cls-13" d="M783.05,73.86c-4.17,7.87-2.17,38.87,60.83,66.87s102,47,102,63v44.49l50.5-102.35,97.33,55.21-72-151.35-238.67,24.14Z"/>
  <polygon class="cls-40" points="1744.05 89.86 1737.88 112.72 1789.88 156.72 1775.38 123.29 1833.38 123.29 1744.05 89.86"/>
  <polygon class="cls-18" points="1856.88 135.72 1807.38 132.79 1822.72 148.96 1856.88 135.72"/>
  <path class="cls-39" d="M1446.88,92.72c-31,17-30.17,24.97-30.17,24.97l30.17,39.03,7.17-23.94,31.83-18.06-39-22Z"/>
  <path class="cls-57" d="M1192.05,172.15c-5.17,14.57,0,20.74,0,20.74l19.83-5.17-19.83-15.57Z"/>
  <path class="cls-42" d="M210.83,97.32s56.47-14.24,73.26-3.39c16.78,10.85,32.95,46.65,45.38,54.88s37.92,12.89,37.92,12.89c0,0-44.14-7.63-46.93-1.48-2.8,6.15,23.31,34.14,23.31,34.14,0,0-95.11-27.99-95.11-46.65l24.24,55.98s-57.81-29.86-59.68-61.58c-1.86-31.72-2.39-44.79-2.39-44.79Z"/>
  <path class="cls-62" d="M94.83,215.52s-69.78,22.49-61.11,42.41,46.75,73.92,44.71,86.92,13.96-67.84,5.96-86.92c0-29.16-30.93,53.59,64.53,124.25,0,0-13.53-38.33,16.47-102.33s-16.76-132.21-43.88-133.6-26.68,69.27-26.68,69.27Z"/>
  <path class="cls-5" d="M190.72,190.32s-47.65,18.21-34.49,41.87-27.84,49.67,49.16,94.67,83.72,52,83.72,52c0,0-12.62-22.29-23.67-88.65s16.95-68.35-24.05-87.35-50.67-12.54-50.67-12.54Z"/>
  <path class="cls-33" d="M277.38,160.22s-43.58-36.52-56.29-20.44-6.63,51.47-6.63,51.47c0,0,24.63,52.48,48.28,61.04s63.64,11.56,63.64,11.56c0,0-40.55-48.08-37.28-73.54,3.28-25.46-11.72-30.1-11.72-30.1Z"/>
  <path class="cls-47" d="M289.11,117.52s-39.1-25.67-19.41-38.67c19.69-13,86.35-5.67,109.02,38.67l22.67,44.33s-45.67-47.77-61.33-44.39-50.94.05-50.94.05Z"/>
  <path class="cls-43" d="M45.38,160.77s13.05,97.04,48.49,113.83c35.43,16.8,55.95,52.25,55.95,52.25,0,0-9.32-98.28-2.8-121.92,6.53-23.64-.93-81.49-21.45-92.68s-65.89,0-65.89,0l-14.3,48.52Z"/>
  <path class="cls-44" d="M122.46,98.57l-24.86,4.35s-24.24,57.85-9.32,74.65c14.92,16.8,130.54,74.65,136.14,106.37l-9.95-92.68s-3.74-73.64-52.36-90.94c-10.83-3.86-23.89-4.92-39.64-1.74Z"/>
  <path class="cls-48" d="M158.52,111.63s25.69-28.62,58.85-13.07c33.15,15.55,48.07,54.74,48.07,54.74,0,0-29.84-35.46-39.16-31.72s24.24,82.11,24.24,82.11c0,0-113.76-27.99-91.38-91.44"/>
  <path class="cls-14" d="M190.43,91.72l-43.41,8.4s61.54,37.32,61.54,55.98,12.54-32.19,12.54-32.19l-30.67-32.19Z"/>
  <path class="cls-7" d="M81.85,126.71l-8.5,34.99s-2.8,22.39,12.12,37.32c14.92,14.93,41.03,18.77,41.03,18.77,0,0-35.43-52.36-31.7-67.28,3.73-14.93-12.95-23.79-12.95-23.79Z"/>
  <path class="cls-63" d="M139.56,128.11c16.78,13.06,22.38,33.59,22.38,33.59l13.57-33.59-23.21-36.39h-53.07l40.33,36.39Z"/>
  <path class="cls-64" d="M73.36,91.72s-8.39,38.26,15.85,56.92c24.24,18.66,37.3,39.19,37.3,39.19,0,0-11.19-50.39-7.46-57.85,3.73-7.46-13.99-38.26-13.99-38.26h-31.7Z"/>
  <polygon class="cls-31" points="126.5 1004.22 60.88 1025.72 60.88 1086.22 104.02 1108.22 93.69 1056.22 126.5 1004.22"/>
  <path class="cls-55" d="M114.88,876.72l-46-29s-20.38,113,24.81,124.5l45.19,11.5s-45-38.75-45-59c0-24,21-48,21-48Z"/>
  <path class="cls-36" d="M70.88,577.56l15-11.83s20,9,25,31c8,23,14,23,14,23l-28-12s-6-2,2,11c0,0-24,11-23-4s-5-37.17-5-37.17Z"/>
  <path class="cls-3" d="M502.02,33.01l-13.89,64.51,60.25,32.94-6.89,32.78s52.84-7.07,43.84-46.82c0,0,32.92,24.47,31.79,43.16,0,0,27.03-55.04-.06-67.01-27.09-11.97-115.04-59.55-115.04-59.55Z"/>
  <path class="cls-61" d="M55.05,793.37l42.07,23.73,37.51-30.08s-11.9,12.9-26.34,2.63c-14.45-10.27-14.62-45.32-39.26-33.6-24.65,11.73-13.97,37.32-13.97,37.32Z"/>
</svg>