<?xml version="1.0" encoding="UTF-8"?>
<svg id="Calque_8" data-name="Calque 8" xmlns="http://www.w3.org/2000/svg" xmlns:xlink="http://www.w3.org/1999/xlink" viewBox="0 0 2720.98 1628.59">
  <defs>
    <style>
      .cls-1 {
        fill: url(#Nouvelle_nuance_de_dégradé_1-32);
        stroke: url(#Nouvelle_nuance_de_dégradé_2-18);
      }

      .cls-1, .cls-2, .cls-3, .cls-4, .cls-5, .cls-6, .cls-7, .cls-8, .cls-9, .cls-10, .cls-11, .cls-12, .cls-13, .cls-14, .cls-15, .cls-16, .cls-17, .cls-18, .cls-19, .cls-20, .cls-21, .cls-22, .cls-23, .cls-24, .cls-25, .cls-26, .cls-27, .cls-28, .cls-29, .cls-30, .cls-31, .cls-32, .cls-33, .cls-34, .cls-35, .cls-36, .cls-37, .cls-38, .cls-39, .cls-40, .cls-41, .cls-42, .cls-43, .cls-44, .cls-45, .cls-46, .cls-47, .cls-48, .cls-49, .cls-50, .cls-51, .cls-52, .cls-53, .cls-54, .cls-55, .cls-56, .cls-57, .cls-58, .cls-59, .cls-60, .cls-61, .cls-62, .cls-63, .cls-64, .cls-65, .cls-66 {
        stroke-miterlimit: 10;
      }

      .cls-2 {
        fill: url(#Nouvelle_nuance_de_dégradé_1-40);
        stroke: url(#Nouvelle_nuance_de_dégradé_2-26);
      }

      .cls-3 {
        fill: url(#Nouvelle_nuance_de_dégradé_1-65);
        stroke: url(#Nouvelle_nuance_de_dégradé_2-51);
      }

      .cls-4 {
        fill: url(#Dégradé_sans_nom_8-7);
        stroke: url(#Nouvelle_nuance_de_dégradé_1-8);
      }

      .cls-5 {
        fill: url(#Nouvelle_nuance_de_dégradé_1-52);
        stroke: url(#Nouvelle_nuance_de_dégradé_2-38);
      }

      .cls-6 {
        fill: url(#Nouvelle_nuance_de_dégradé_1-20);
        stroke: url(#Nouvelle_nuance_de_dégradé_2-6);
      }

      .cls-7 {
        fill: url(#Nouvelle_nuance_de_dégradé_1-59);
        stroke: url(#Nouvelle_nuance_de_dégradé_2-45);
      }

      .cls-8 {
        fill: url(#Nouvelle_nuance_de_dégradé_1-43);
        stroke: url(#Nouvelle_nuance_de_dégradé_2-29);
      }

      .cls-9 {
        fill: url(#Dégradé_sans_nom_8-8);
        stroke: url(#Nouvelle_nuance_de_dégradé_1-9);
      }

      .cls-10 {
        fill: url(#Nouvelle_nuance_de_dégradé_1-36);
        stroke: url(#Nouvelle_nuance_de_dégradé_2-22);
      }

      .cls-11 {
        fill: url(#Nouvelle_nuance_de_dégradé_1-44);
        stroke: url(#Nouvelle_nuance_de_dégradé_2-30);
      }

      .cls-12 {
        fill: url(#Dégradé_sans_nom_8-5);
        stroke: url(#Nouvelle_nuance_de_dégradé_1-6);
      }

      .cls-13 {
        fill: url(#Nouvelle_nuance_de_dégradé_1-45);
        stroke: url(#Nouvelle_nuance_de_dégradé_2-31);
      }

      .cls-14 {
        fill: url(#Nouvelle_nuance_de_dégradé_1-58);
        stroke: url(#Nouvelle_nuance_de_dégradé_2-44);
      }

      .cls-15 {
        fill: url(#Nouvelle_nuance_de_dégradé_1-30);
        stroke: url(#Nouvelle_nuance_de_dégradé_2-16);
      }

      .cls-16 {
        fill: url(#Dégradé_sans_nom_8-6);
        stroke: url(#Nouvelle_nuance_de_dégradé_1-7);
      }

      .cls-17 {
        fill: url(#Nouvelle_nuance_de_dégradé_1-39);
        stroke: url(#Nouvelle_nuance_de_dégradé_2-25);
      }

      .cls-18 {
        fill: url(#Nouvelle_nuance_de_dégradé_1-47);
        stroke: url(#Nouvelle_nuance_de_dégradé_2-33);
      }

      .cls-19 {
        fill: url(#Nouvelle_nuance_de_dégradé_1-29);
        stroke: url(#Nouvelle_nuance_de_dégradé_2-15);
      }

      .cls-20 {
        fill: url(#Dégradé_sans_nom_8-9);
        stroke: url(#Nouvelle_nuance_de_dégradé_1-10);
      }

      .cls-21 {
        fill: url(#Dégradé_sans_nom_8-2);
        stroke: url(#Nouvelle_nuance_de_dégradé_1-3);
      }

      .cls-22 {
        fill: url(#Nouvelle_nuance_de_dégradé_1-27);
        stroke: url(#Nouvelle_nuance_de_dégradé_2-13);
      }

      .cls-23 {
        fill: url(#Dégradé_sans_nom_8-3);
        stroke: url(#Nouvelle_nuance_de_dégradé_1-4);
      }

      .cls-24 {
        fill: url(#Dégradé_sans_nom_10);
        stroke: url(#Nouvelle_nuance_de_dégradé_1);
      }

      .cls-25 {
        fill: url(#Nouvelle_nuance_de_dégradé_1-15);
        stroke: url(#Nouvelle_nuance_de_dégradé_2);
      }

      .cls-26 {
        fill: url(#Nouvelle_nuance_de_dégradé_1-33);
        stroke: url(#Nouvelle_nuance_de_dégradé_2-19);
      }

      .cls-27 {
        fill: url(#Nouvelle_nuance_de_dégradé_1-34);
        stroke: url(#Nouvelle_nuance_de_dégradé_2-20);
      }

      .cls-28 {
        fill: url(#Dégradé_sans_nom_8-13);
        stroke: url(#Nouvelle_nuance_de_dégradé_1-14);
      }

      .cls-29 {
        fill: url(#Nouvelle_nuance_de_dégradé_1-19);
        stroke: url(#Nouvelle_nuance_de_dégradé_2-5);
      }

      .cls-30 {
        fill: url(#Nouvelle_nuance_de_dégradé_1-16);
        stroke: url(#Nouvelle_nuance_de_dégradé_2-2);
      }

      .cls-31 {
        fill: url(#Nouvelle_nuance_de_dégradé_1-62);
        stroke: url(#Nouvelle_nuance_de_dégradé_2-48);
      }

      .cls-32 {
        fill: url(#Nouvelle_nuance_de_dégradé_1-26);
        stroke: url(#Nouvelle_nuance_de_dégradé_2-12);
      }

      .cls-33 {
        fill: url(#Nouvelle_nuance_de_dégradé_1-53);
        stroke: url(#Nouvelle_nuance_de_dégradé_2-39);
      }

      .cls-34 {
        fill: url(#Nouvelle_nuance_de_dégradé_1-22);
        stroke: url(#Nouvelle_nuance_de_dégradé_2-8);
      }

      .cls-35 {
        fill: url(#Nouvelle_nuance_de_dégradé_1-37);
        stroke: url(#Nouvelle_nuance_de_dégradé_2-23);
      }

      .cls-36 {
        fill: url(#Nouvelle_nuance_de_dégradé_1-64);
        stroke: url(#Nouvelle_nuance_de_dégradé_2-50);
      }

      .cls-37 {
        fill: url(#Nouvelle_nuance_de_dégradé_1-31);
        stroke: url(#Nouvelle_nuance_de_dégradé_2-17);
      }

      .cls-38 {
        fill: url(#Nouvelle_nuance_de_dégradé_1-21);
        stroke: url(#Nouvelle_nuance_de_dégradé_2-7);
      }

      .cls-39 {
        fill: url(#Nouvelle_nuance_de_dégradé_1-48);
        stroke: url(#Nouvelle_nuance_de_dégradé_2-34);
      }

      .cls-40 {
        fill: url(#Nouvelle_nuance_de_dégradé_1-46);
        stroke: url(#Nouvelle_nuance_de_dégradé_2-32);
      }

      .cls-41 {
        fill: url(#Dégradé_sans_nom_8-11);
        stroke: url(#Nouvelle_nuance_de_dégradé_1-12);
      }

      .cls-42 {
        fill: url(#Nouvelle_nuance_de_dégradé_1-50);
        stroke: url(#Nouvelle_nuance_de_dégradé_2-36);
      }

      .cls-43 {
        fill: url(#Nouvelle_nuance_de_dégradé_1-55);
        stroke: url(#Nouvelle_nuance_de_dégradé_2-41);
      }

      .cls-44 {
        fill: url(#Nouvelle_nuance_de_dégradé_1-56);
        stroke: url(#Nouvelle_nuance_de_dégradé_2-42);
      }

      .cls-45 {
        fill: url(#Nouvelle_nuance_de_dégradé_1-28);
        stroke: url(#Nouvelle_nuance_de_dégradé_2-14);
      }

      .cls-46 {
        fill: url(#Nouvelle_nuance_de_dégradé_1-18);
        stroke: url(#Nouvelle_nuance_de_dégradé_2-4);
      }

      .cls-47 {
        fill: url(#Nouvelle_nuance_de_dégradé_1-54);
        stroke: url(#Nouvelle_nuance_de_dégradé_2-40);
      }

      .cls-48 {
        fill: url(#Nouvelle_nuance_de_dégradé_1-57);
        stroke: url(#Nouvelle_nuance_de_dégradé_2-43);
      }

      .cls-49 {
        fill: url(#Nouvelle_nuance_de_dégradé_1-42);
        stroke: url(#Nouvelle_nuance_de_dégradé_2-28);
      }

      .cls-50 {
        fill: url(#Dégradé_sans_nom_8-10);
        stroke: url(#Nouvelle_nuance_de_dégradé_1-11);
      }

      .cls-51 {
        fill: url(#Nouvelle_nuance_de_dégradé_1-24);
        stroke: url(#Nouvelle_nuance_de_dégradé_2-10);
      }

      .cls-52 {
        fill: url(#Nouvelle_nuance_de_dégradé_1-23);
        stroke: url(#Nouvelle_nuance_de_dégradé_2-9);
      }

      .cls-53 {
        fill: url(#Dégradé_sans_nom_8-4);
        stroke: url(#Nouvelle_nuance_de_dégradé_1-5);
      }

      .cls-54 {
        fill: url(#Nouvelle_nuance_de_dégradé_1-41);
        stroke: url(#Nouvelle_nuance_de_dégradé_2-27);
      }

      .cls-55 {
        fill: url(#Nouvelle_nuance_de_dégradé_1-63);
        stroke: url(#Nouvelle_nuance_de_dégradé_2-49);
      }

      .cls-56 {
        fill: url(#Nouvelle_nuance_de_dégradé_1-17);
        stroke: url(#Nouvelle_nuance_de_dégradé_2-3);
      }

      .cls-57 {
        fill: url(#Nouvelle_nuance_de_dégradé_1-49);
        stroke: url(#Nouvelle_nuance_de_dégradé_2-35);
      }

      .cls-58 {
        fill: url(#Nouvelle_nuance_de_dégradé_1-38);
        stroke: url(#Nouvelle_nuance_de_dégradé_2-24);
      }

      .cls-59 {
        fill: url(#Dégradé_sans_nom_8);
        stroke: url(#Nouvelle_nuance_de_dégradé_1-2);
      }

      .cls-60 {
        fill: url(#Dégradé_sans_nom_8-12);
        stroke: url(#Nouvelle_nuance_de_dégradé_1-13);
      }

      .cls-61 {
        fill: url(#Nouvelle_nuance_de_dégradé_1-66);
        stroke: url(#Nouvelle_nuance_de_dégradé_2-52);
      }

      .cls-62 {
        fill: url(#Nouvelle_nuance_de_dégradé_1-51);
        stroke: url(#Nouvelle_nuance_de_dégradé_2-37);
      }

      .cls-63 {
        fill: url(#Nouvelle_nuance_de_dégradé_1-60);
        stroke: url(#Nouvelle_nuance_de_dégradé_2-46);
      }

      .cls-64 {
        fill: url(#Nouvelle_nuance_de_dégradé_1-61);
        stroke: url(#Nouvelle_nuance_de_dégradé_2-47);
      }

      .cls-65 {
        fill: url(#Nouvelle_nuance_de_dégradé_1-25);
        stroke: url(#Nouvelle_nuance_de_dégradé_2-11);
      }

      .cls-66 {
        fill: url(#Nouvelle_nuance_de_dégradé_1-35);
        stroke: url(#Nouvelle_nuance_de_dégradé_2-21);
      }
    </style>
    <linearGradient id="Dégradé_sans_nom_10" data-name="Dégradé sans nom 10" x1="420.28" y1="1601.41" x2="10.94" y2="1144.07" gradientTransform="translate(2662.76 2394.45) rotate(-180)" gradientUnits="userSpaceOnUse">
      <stop offset=".07" stop-color="#db813e"/>
      <stop offset=".11" stop-color="#d57e3d"/>
      <stop offset=".55" stop-color="#965d39"/>
      <stop offset=".74" stop-color="#7c5036"/>
      <stop offset=".85" stop-color="#734b35"/>
    </linearGradient>
    <linearGradient id="Nouvelle_nuance_de_dégradé_1" data-name="Nouvelle nuance de dégradé 1" x1="94.61" y1="1357.65" x2="254.76" y2="1357.65" gradientTransform="translate(2662.76 2394.45) rotate(-180)" gradientUnits="userSpaceOnUse">
      <stop offset=".07" stop-color="#c9773e"/>
      <stop offset=".31" stop-color="#9a5f39"/>
      <stop offset=".33" stop-color="#975d38"/>
      <stop offset=".5" stop-color="#7c5036"/>
      <stop offset=".6" stop-color="#734b35"/>
      <stop offset=".84" stop-color="#422c25"/>
      <stop offset=".85" stop-color="#422c25"/>
      <stop offset="1" stop-color="#422f25"/>
    </linearGradient>
    <linearGradient id="Dégradé_sans_nom_8" data-name="Dégradé sans nom 8" x1="477.06" y1="1550.59" x2="67.72" y2="1093.25" gradientTransform="translate(2662.76 2394.45) rotate(-180)" gradientUnits="userSpaceOnUse">
      <stop offset=".07" stop-color="#c9773e"/>
      <stop offset=".55" stop-color="#965d39"/>
      <stop offset=".74" stop-color="#7c5036"/>
      <stop offset=".85" stop-color="#734b35"/>
    </linearGradient>
    <linearGradient id="Nouvelle_nuance_de_dégradé_1-2" data-name="Nouvelle nuance de dégradé 1" x1="124.36" y1="1295.52" x2="349.48" y2="1295.52" xlink:href="#Nouvelle_nuance_de_dégradé_1"/>
    <linearGradient id="Dégradé_sans_nom_8-2" data-name="Dégradé sans nom 8" x1="557.62" y1="1478.48" x2="148.28" y2="1021.15" xlink:href="#Dégradé_sans_nom_8"/>
    <linearGradient id="Nouvelle_nuance_de_dégradé_1-3" data-name="Nouvelle nuance de dégradé 1" x1="205.42" y1="1166.25" x2="369.24" y2="1166.25" xlink:href="#Nouvelle_nuance_de_dégradé_1"/>
    <linearGradient id="Dégradé_sans_nom_8-3" data-name="Dégradé sans nom 8" x1="682.38" y1="1366.82" x2="273.04" y2="909.48" xlink:href="#Dégradé_sans_nom_8"/>
    <linearGradient id="Nouvelle_nuance_de_dégradé_1-4" data-name="Nouvelle nuance de dégradé 1" x1="274.03" y1="1046.97" x2="446.1" y2="1046.97" xlink:href="#Nouvelle_nuance_de_dégradé_1"/>
    <linearGradient id="Dégradé_sans_nom_8-4" data-name="Dégradé sans nom 8" x1="585.02" y1="1453.96" x2="175.68" y2="996.63" xlink:href="#Dégradé_sans_nom_8"/>
    <linearGradient id="Nouvelle_nuance_de_dégradé_1-5" data-name="Nouvelle nuance de dégradé 1" x1="322.66" y1="1198.09" x2="412.14" y2="1198.09" xlink:href="#Nouvelle_nuance_de_dégradé_1"/>
    <linearGradient id="Dégradé_sans_nom_8-5" data-name="Dégradé sans nom 8" x1="736.28" y1="1318.57" x2="326.95" y2="861.24" xlink:href="#Dégradé_sans_nom_8"/>
    <linearGradient id="Nouvelle_nuance_de_dégradé_1-6" data-name="Nouvelle nuance de dégradé 1" x1="386.57" y1="1053.99" x2="532.68" y2="1053.99" xlink:href="#Nouvelle_nuance_de_dégradé_1"/>
    <linearGradient id="Dégradé_sans_nom_8-6" data-name="Dégradé sans nom 8" x1="820.09" y1="1243.56" x2="410.76" y2="786.22" xlink:href="#Dégradé_sans_nom_8"/>
    <linearGradient id="Nouvelle_nuance_de_dégradé_1-7" data-name="Nouvelle nuance de dégradé 1" x1="522.7" y1="1015.8" x2="669.77" y2="1015.8" xlink:href="#Nouvelle_nuance_de_dégradé_1"/>
    <linearGradient id="Dégradé_sans_nom_8-7" data-name="Dégradé sans nom 8" x1="939.32" y1="1136.84" x2="529.99" y2="679.51" xlink:href="#Dégradé_sans_nom_8"/>
    <linearGradient id="Nouvelle_nuance_de_dégradé_1-8" data-name="Nouvelle nuance de dégradé 1" x1="725.48" y1="1009.66" x2="862.8" y2="1009.66" xlink:href="#Nouvelle_nuance_de_dégradé_1"/>
    <linearGradient id="Dégradé_sans_nom_8-8" data-name="Dégradé sans nom 8" x1="1074.83" y1="1015.56" x2="665.49" y2="558.22" xlink:href="#Dégradé_sans_nom_8"/>
    <linearGradient id="Nouvelle_nuance_de_dégradé_1-9" data-name="Nouvelle nuance de dégradé 1" x1="898.42" y1="956.68" x2="1194.16" y2="956.68" xlink:href="#Nouvelle_nuance_de_dégradé_1"/>
    <linearGradient id="Dégradé_sans_nom_8-9" data-name="Dégradé sans nom 8" x1="660.44" y1="1386.45" x2="251.11" y2="929.12" xlink:href="#Dégradé_sans_nom_8"/>
    <linearGradient id="Nouvelle_nuance_de_dégradé_1-10" data-name="Nouvelle nuance de dégradé 1" x1="468.66" y1="1172.27" x2="517.07" y2="1172.27" xlink:href="#Nouvelle_nuance_de_dégradé_1"/>
    <linearGradient id="Dégradé_sans_nom_8-10" data-name="Dégradé sans nom 8" x1="562.2" y1="1474.38" x2="152.87" y2="1017.04" xlink:href="#Dégradé_sans_nom_8"/>
    <linearGradient id="Nouvelle_nuance_de_dégradé_1-11" data-name="Nouvelle nuance de dégradé 1" x1="365.7" y1="1321.35" x2="518.6" y2="1321.35" xlink:href="#Nouvelle_nuance_de_dégradé_1"/>
    <linearGradient id="Dégradé_sans_nom_8-11" data-name="Dégradé sans nom 8" x1="620.4" y1="1422.29" x2="211.07" y2="964.96" xlink:href="#Dégradé_sans_nom_8"/>
    <linearGradient id="Nouvelle_nuance_de_dégradé_1-12" data-name="Nouvelle nuance de dégradé 1" x1="479.22" y1="1277.16" x2="500.9" y2="1277.16" xlink:href="#Nouvelle_nuance_de_dégradé_1"/>
    <linearGradient id="Dégradé_sans_nom_8-12" data-name="Dégradé sans nom 8" x1="736.4" y1="1318.46" x2="327.07" y2="861.13" xlink:href="#Dégradé_sans_nom_8"/>
    <linearGradient id="Nouvelle_nuance_de_dégradé_1-13" data-name="Nouvelle nuance de dégradé 1" x1="563.19" y1="1148.67" x2="606.48" y2="1148.67" xlink:href="#Nouvelle_nuance_de_dégradé_1"/>
    <linearGradient id="Dégradé_sans_nom_8-13" data-name="Dégradé sans nom 8" x1="849.87" y1="1216.9" x2="440.54" y2="759.57" xlink:href="#Dégradé_sans_nom_8"/>
    <linearGradient id="Nouvelle_nuance_de_dégradé_1-14" data-name="Nouvelle nuance de dégradé 1" x1="681.77" y1="1050.91" x2="775.38" y2="1050.91" xlink:href="#Nouvelle_nuance_de_dégradé_1"/>
    <linearGradient id="Nouvelle_nuance_de_dégradé_1-15" data-name="Nouvelle nuance de dégradé 1" x1="350.93" y1="1124.79" x2="175.52" y2="1023.29" xlink:href="#Nouvelle_nuance_de_dégradé_1"/>
    <linearGradient id="Nouvelle_nuance_de_dégradé_2" data-name="Nouvelle nuance de dégradé 2" x1="190.41" y1="1098.19" x2="405.51" y2="1098.19" gradientTransform="translate(2662.76 2394.45) rotate(-180)" gradientUnits="userSpaceOnUse">
      <stop offset=".31" stop-color="#8e3b00" stop-opacity="0"/>
      <stop offset=".99" stop-color="#d8753e"/>
    </linearGradient>
    <linearGradient id="Nouvelle_nuance_de_dégradé_1-16" data-name="Nouvelle nuance de dégradé 1" x1="521.05" y1="981.63" x2="337.29" y2="875.29" xlink:href="#Nouvelle_nuance_de_dégradé_1"/>
    <linearGradient id="Nouvelle_nuance_de_dégradé_2-2" data-name="Nouvelle nuance de dégradé 2" x1="318.15" y1="951.5" x2="541.41" y2="951.5" xlink:href="#Nouvelle_nuance_de_dégradé_2"/>
    <linearGradient id="Nouvelle_nuance_de_dégradé_1-17" data-name="Nouvelle nuance de dégradé 1" x1="229.79" y1="1271.83" x2="-46.64" y2="1111.87" xlink:href="#Nouvelle_nuance_de_dégradé_1"/>
    <linearGradient id="Nouvelle_nuance_de_dégradé_2-3" data-name="Nouvelle nuance de dégradé 2" x1="-58.22" y1="1226.56" x2="269.34" y2="1226.56" xlink:href="#Nouvelle_nuance_de_dégradé_2"/>
    <linearGradient id="Nouvelle_nuance_de_dégradé_1-18" data-name="Nouvelle nuance de dégradé 1" x1="614.83" y1="936.61" x2="489.18" y2="863.9" xlink:href="#Nouvelle_nuance_de_dégradé_1"/>
    <linearGradient id="Nouvelle_nuance_de_dégradé_2-4" data-name="Nouvelle nuance de dégradé 2" x1="515.96" y1="901.77" x2="646" y2="901.77" xlink:href="#Nouvelle_nuance_de_dégradé_2"/>
    <linearGradient id="Nouvelle_nuance_de_dégradé_1-19" data-name="Nouvelle nuance de dégradé 1" x1="791.59" y1="981.84" x2="604.69" y2="873.68" xlink:href="#Nouvelle_nuance_de_dégradé_1"/>
    <linearGradient id="Nouvelle_nuance_de_dégradé_2-5" data-name="Nouvelle nuance de dégradé 2" x1="605.48" y1="939.74" x2="808.41" y2="939.74" xlink:href="#Nouvelle_nuance_de_dégradé_2"/>
    <linearGradient id="Nouvelle_nuance_de_dégradé_1-20" data-name="Nouvelle nuance de dégradé 1" x1="195.21" y1="1502.9" x2="-7.62" y2="1385.52" xlink:href="#Nouvelle_nuance_de_dégradé_1"/>
    <linearGradient id="Nouvelle_nuance_de_dégradé_2-6" data-name="Nouvelle nuance de dégradé 2" x1="-47.97" y1="1431" x2="212.82" y2="1431" xlink:href="#Nouvelle_nuance_de_dégradé_2"/>
    <linearGradient id="Nouvelle_nuance_de_dégradé_1-21" data-name="Nouvelle nuance de dégradé 1" x1="171.77" y1="1618.2" x2="-1.85" y2="1517.73" xlink:href="#Nouvelle_nuance_de_dégradé_1"/>
    <linearGradient id="Nouvelle_nuance_de_dégradé_2-7" data-name="Nouvelle nuance de dégradé 2" x1="-6.45" y1="1560.6" x2="185.42" y2="1560.6" xlink:href="#Nouvelle_nuance_de_dégradé_2"/>
    <linearGradient id="Nouvelle_nuance_de_dégradé_1-22" data-name="Nouvelle nuance de dégradé 1" x1="137.54" y1="1794.43" x2="-6.33" y2="1711.18" xlink:href="#Nouvelle_nuance_de_dégradé_1"/>
    <linearGradient id="Nouvelle_nuance_de_dégradé_2-8" data-name="Nouvelle nuance de dégradé 2" x1="-5.99" y1="1756.89" x2="133.43" y2="1756.89" xlink:href="#Nouvelle_nuance_de_dégradé_2"/>
    <linearGradient id="Nouvelle_nuance_de_dégradé_1-23" data-name="Nouvelle nuance de dégradé 1" x1="188.99" y1="1689.42" x2="155.17" y2="1669.85" xlink:href="#Nouvelle_nuance_de_dégradé_1"/>
    <linearGradient id="Nouvelle_nuance_de_dégradé_2-9" data-name="Nouvelle nuance de dégradé 2" x1="153.84" y1="1688.45" x2="191.53" y2="1688.45" xlink:href="#Nouvelle_nuance_de_dégradé_2"/>
    <linearGradient id="Nouvelle_nuance_de_dégradé_1-24" data-name="Nouvelle nuance de dégradé 1" x1="222.06" y1="1593.83" x2="95.66" y2="1520.68" xlink:href="#Nouvelle_nuance_de_dégradé_1"/>
    <linearGradient id="Nouvelle_nuance_de_dégradé_2-10" data-name="Nouvelle nuance de dégradé 2" x1="75.69" y1="1573.76" x2="224.36" y2="1573.76" xlink:href="#Nouvelle_nuance_de_dégradé_2"/>
    <linearGradient id="Nouvelle_nuance_de_dégradé_1-25" data-name="Nouvelle nuance de dégradé 1" x1="126.59" y1="1953.4" x2="37.4" y2="1901.79" xlink:href="#Nouvelle_nuance_de_dégradé_1"/>
    <linearGradient id="Nouvelle_nuance_de_dégradé_2-11" data-name="Nouvelle nuance de dégradé 2" x1="34.81" y1="1923.03" x2="151.96" y2="1923.03" xlink:href="#Nouvelle_nuance_de_dégradé_2"/>
    <linearGradient id="Nouvelle_nuance_de_dégradé_1-26" data-name="Nouvelle nuance de dégradé 1" x1="55.99" y1="1984.16" x2="29.87" y2="1969.04" xlink:href="#Nouvelle_nuance_de_dégradé_1"/>
    <linearGradient id="Nouvelle_nuance_de_dégradé_2-12" data-name="Nouvelle nuance de dégradé 2" x1="34.92" y1="1972.33" x2="53.33" y2="1972.33" xlink:href="#Nouvelle_nuance_de_dégradé_2"/>
    <linearGradient id="Nouvelle_nuance_de_dégradé_1-27" data-name="Nouvelle nuance de dégradé 1" x1="1067.25" y1="863.39" x2="921.36" y2="778.96" xlink:href="#Nouvelle_nuance_de_dégradé_1"/>
    <linearGradient id="Nouvelle_nuance_de_dégradé_2-13" data-name="Nouvelle nuance de dégradé 2" x1="914.94" y1="838.99" x2="1058.79" y2="838.99" xlink:href="#Nouvelle_nuance_de_dégradé_2"/>
    <linearGradient id="Nouvelle_nuance_de_dégradé_1-28" data-name="Nouvelle nuance de dégradé 1" x1="1022.23" y1="863.79" x2="1110.64" y2="863.79" xlink:href="#Nouvelle_nuance_de_dégradé_1"/>
    <linearGradient id="Nouvelle_nuance_de_dégradé_2-14" data-name="Nouvelle nuance de dégradé 2" x1="1021.55" y1="864.1" x2="1111.24" y2="864.1" xlink:href="#Nouvelle_nuance_de_dégradé_2"/>
    <linearGradient id="Nouvelle_nuance_de_dégradé_1-29" data-name="Nouvelle nuance de dégradé 1" x1="1130.28" y1="898.64" x2="1291.83" y2="898.64" xlink:href="#Nouvelle_nuance_de_dégradé_1"/>
    <linearGradient id="Nouvelle_nuance_de_dégradé_2-15" data-name="Nouvelle nuance de dégradé 2" x1="1129.78" y1="899" x2="1292.56" y2="899" xlink:href="#Nouvelle_nuance_de_dégradé_2"/>
    <linearGradient id="Nouvelle_nuance_de_dégradé_1-30" data-name="Nouvelle nuance de dégradé 1" x1="1985.58" y1="551.05" x2="2090.25" y2="551.05" gradientTransform="translate(1802.48 3581.67) rotate(-118.14)" xlink:href="#Nouvelle_nuance_de_dégradé_1"/>
    <linearGradient id="Nouvelle_nuance_de_dégradé_2-16" data-name="Nouvelle nuance de dégradé 2" x1="1985.08" y1="551.05" x2="2091.45" y2="551.05" gradientTransform="translate(1802.48 3581.67) rotate(-118.14)" xlink:href="#Nouvelle_nuance_de_dégradé_2"/>
    <linearGradient id="Nouvelle_nuance_de_dégradé_1-31" data-name="Nouvelle nuance de dégradé 1" x1="1413.16" y1="883.55" x2="1467.16" y2="883.55" xlink:href="#Nouvelle_nuance_de_dégradé_1"/>
    <linearGradient id="Nouvelle_nuance_de_dégradé_2-17" data-name="Nouvelle nuance de dégradé 2" x1="1412.65" y1="884.06" x2="1469.3" y2="884.06" xlink:href="#Nouvelle_nuance_de_dégradé_2"/>
    <linearGradient id="Nouvelle_nuance_de_dégradé_1-32" data-name="Nouvelle nuance de dégradé 1" x1="1497.82" y1="892.91" x2="1674.16" y2="892.91" xlink:href="#Nouvelle_nuance_de_dégradé_1"/>
    <linearGradient id="Nouvelle_nuance_de_dégradé_2-18" data-name="Nouvelle nuance de dégradé 2" x1="1497.32" y1="893.02" x2="1675.52" y2="893.02" xlink:href="#Nouvelle_nuance_de_dégradé_2"/>
    <linearGradient id="Nouvelle_nuance_de_dégradé_1-33" data-name="Nouvelle nuance de dégradé 1" x1="133.69" y1="1150.87" x2="11.41" y2="1080.1" xlink:href="#Nouvelle_nuance_de_dégradé_1"/>
    <linearGradient id="Nouvelle_nuance_de_dégradé_2-19" data-name="Nouvelle nuance de dégradé 2" x1="6.63" y1="1118.98" x2="126.59" y2="1118.98" xlink:href="#Nouvelle_nuance_de_dégradé_2"/>
    <linearGradient id="Nouvelle_nuance_de_dégradé_1-34" data-name="Nouvelle nuance de dégradé 1" x1="369.02" y1="954.07" x2="231" y2="874.2" xlink:href="#Nouvelle_nuance_de_dégradé_1"/>
    <linearGradient id="Nouvelle_nuance_de_dégradé_2-20" data-name="Nouvelle nuance de dégradé 2" x1="239.14" y1="925.71" x2="399.4" y2="925.71" xlink:href="#Nouvelle_nuance_de_dégradé_2"/>
    <linearGradient id="Nouvelle_nuance_de_dégradé_1-35" data-name="Nouvelle nuance de dégradé 1" x1="259.85" y1="1039.73" x2="166.2" y2="985.54" xlink:href="#Nouvelle_nuance_de_dégradé_1"/>
    <linearGradient id="Nouvelle_nuance_de_dégradé_2-21" data-name="Nouvelle nuance de dégradé 2" x1="174.91" y1="1019.96" x2="247.86" y2="1019.96" xlink:href="#Nouvelle_nuance_de_dégradé_2"/>
    <linearGradient id="Nouvelle_nuance_de_dégradé_1-36" data-name="Nouvelle nuance de dégradé 1" x1="232.22" y1="1023.52" x2="195.64" y2="1002.35" xlink:href="#Nouvelle_nuance_de_dégradé_1"/>
    <linearGradient id="Nouvelle_nuance_de_dégradé_2-22" data-name="Nouvelle nuance de dégradé 2" x1="190.15" y1="1010.28" x2="239.87" y2="1010.28" xlink:href="#Nouvelle_nuance_de_dégradé_2"/>
    <linearGradient id="Nouvelle_nuance_de_dégradé_1-37" data-name="Nouvelle nuance de dégradé 1" x1="54.46" y1="1190.6" x2="-4.26" y2="1156.62" xlink:href="#Nouvelle_nuance_de_dégradé_1"/>
    <linearGradient id="Nouvelle_nuance_de_dégradé_2-23" data-name="Nouvelle nuance de dégradé 2" x1="-7.91" y1="1177.5" x2="47.94" y2="1177.5" xlink:href="#Nouvelle_nuance_de_dégradé_2"/>
    <linearGradient id="Nouvelle_nuance_de_dégradé_1-38" data-name="Nouvelle nuance de dégradé 1" x1="115.33" y1="1204.72" x2="11.35" y2="1144.55" xlink:href="#Nouvelle_nuance_de_dégradé_1"/>
    <linearGradient id="Nouvelle_nuance_de_dégradé_2-24" data-name="Nouvelle nuance de dégradé 2" x1="25.09" y1="1177.7" x2="133.23" y2="1177.7" xlink:href="#Nouvelle_nuance_de_dégradé_2"/>
    <linearGradient id="Nouvelle_nuance_de_dégradé_1-39" data-name="Nouvelle nuance de dégradé 1" x1="212.23" y1="1168.92" x2="88.42" y2="1097.28" xlink:href="#Nouvelle_nuance_de_dégradé_1"/>
    <linearGradient id="Nouvelle_nuance_de_dégradé_2-25" data-name="Nouvelle nuance de dégradé 2" x1="100.74" y1="1142.61" x2="182.93" y2="1142.61" xlink:href="#Nouvelle_nuance_de_dégradé_2"/>
    <linearGradient id="Nouvelle_nuance_de_dégradé_1-40" data-name="Nouvelle nuance de dégradé 1" x1="298.22" y1="1185.83" x2="144.67" y2="1096.97" xlink:href="#Nouvelle_nuance_de_dégradé_1"/>
    <linearGradient id="Nouvelle_nuance_de_dégradé_2-26" data-name="Nouvelle nuance de dégradé 2" x1="149.9" y1="1154.6" x2="281.84" y2="1154.6" xlink:href="#Nouvelle_nuance_de_dégradé_2"/>
    <linearGradient id="Nouvelle_nuance_de_dégradé_1-41" data-name="Nouvelle nuance de dégradé 1" x1="118.62" y1="1370.45" x2="-16.8" y2="1292.08" xlink:href="#Nouvelle_nuance_de_dégradé_1"/>
    <linearGradient id="Nouvelle_nuance_de_dégradé_2-27" data-name="Nouvelle nuance de dégradé 2" x1="-13.52" y1="1339.25" x2="102.09" y2="1339.25" xlink:href="#Nouvelle_nuance_de_dégradé_2"/>
    <linearGradient id="Nouvelle_nuance_de_dégradé_1-42" data-name="Nouvelle nuance de dégradé 1" x1="95.9" y1="1469.9" x2="-18.23" y2="1403.85" xlink:href="#Nouvelle_nuance_de_dégradé_1"/>
    <linearGradient id="Nouvelle_nuance_de_dégradé_2-28" data-name="Nouvelle nuance de dégradé 2" x1="-7.13" y1="1435.59" x2="92.35" y2="1435.59" xlink:href="#Nouvelle_nuance_de_dégradé_2"/>
    <linearGradient id="Nouvelle_nuance_de_dégradé_1-43" data-name="Nouvelle nuance de dégradé 1" x1="461.47" y1="818.93" x2="370.39" y2="766.23" gradientTransform="translate(2653.56 2076.21) rotate(156.56)" xlink:href="#Nouvelle_nuance_de_dégradé_1"/>
    <linearGradient id="Nouvelle_nuance_de_dégradé_2-29" data-name="Nouvelle nuance de dégradé 2" x1="365.82" y1="806.93" x2="447.5" y2="806.93" gradientTransform="translate(2653.56 2076.21) rotate(156.56)" xlink:href="#Nouvelle_nuance_de_dégradé_2"/>
    <linearGradient id="Nouvelle_nuance_de_dégradé_1-44" data-name="Nouvelle nuance de dégradé 1" x1="689.56" y1="926.94" x2="604.27" y2="877.59" xlink:href="#Nouvelle_nuance_de_dégradé_1"/>
    <linearGradient id="Nouvelle_nuance_de_dégradé_2-30" data-name="Nouvelle nuance de dégradé 2" x1="605.4" y1="907.53" x2="686.78" y2="907.53" xlink:href="#Nouvelle_nuance_de_dégradé_2"/>
    <linearGradient id="Nouvelle_nuance_de_dégradé_1-45" data-name="Nouvelle nuance de dégradé 1" x1="1006.46" y1="961.62" x2="750.56" y2="813.54" xlink:href="#Nouvelle_nuance_de_dégradé_1"/>
    <linearGradient id="Nouvelle_nuance_de_dégradé_2-31" data-name="Nouvelle nuance de dégradé 2" x1="723" y1="915.62" x2="1036.63" y2="915.62" xlink:href="#Nouvelle_nuance_de_dégradé_2"/>
    <linearGradient id="Nouvelle_nuance_de_dégradé_1-46" data-name="Nouvelle nuance de dégradé 1" x1="1679.66" y1="889.14" x2="1775.16" y2="889.14" xlink:href="#Nouvelle_nuance_de_dégradé_1"/>
    <linearGradient id="Nouvelle_nuance_de_dégradé_2-32" data-name="Nouvelle nuance de dégradé 2" x1="1679.1" y1="889.7" x2="1777.93" y2="889.7" xlink:href="#Nouvelle_nuance_de_dégradé_2"/>
    <linearGradient id="Nouvelle_nuance_de_dégradé_1-47" data-name="Nouvelle nuance de dégradé 1" x1="1749.16" y1="906.73" x2="1798.66" y2="906.73" xlink:href="#Nouvelle_nuance_de_dégradé_1"/>
    <linearGradient id="Nouvelle_nuance_de_dégradé_2-33" data-name="Nouvelle nuance de dégradé 2" x1="1747.93" y1="906.74" x2="1800.98" y2="906.74" xlink:href="#Nouvelle_nuance_de_dégradé_2"/>
    <linearGradient id="Nouvelle_nuance_de_dégradé_1-48" data-name="Nouvelle nuance de dégradé 1" x1="1358.49" y1="890.58" x2="1427.66" y2="890.58" xlink:href="#Nouvelle_nuance_de_dégradé_1"/>
    <linearGradient id="Nouvelle_nuance_de_dégradé_2-34" data-name="Nouvelle nuance de dégradé 2" x1="1357.99" y1="890.83" x2="1428.68" y2="890.83" xlink:href="#Nouvelle_nuance_de_dégradé_2"/>
    <linearGradient id="Nouvelle_nuance_de_dégradé_1-49" data-name="Nouvelle nuance de dégradé 1" x1="1131.53" y1="948.38" x2="1153.66" y2="948.38" xlink:href="#Nouvelle_nuance_de_dégradé_1"/>
    <linearGradient id="Nouvelle_nuance_de_dégradé_2-35" data-name="Nouvelle nuance de dégradé 2" x1="1131.03" y1="948.25" x2="1154.76" y2="948.25" xlink:href="#Nouvelle_nuance_de_dégradé_2"/>
    <linearGradient id="Nouvelle_nuance_de_dégradé_1-50" data-name="Nouvelle nuance de dégradé 1" x1="280.3" y1="949.46" x2="151.24" y2="874.77" xlink:href="#Nouvelle_nuance_de_dégradé_1"/>
    <linearGradient id="Nouvelle_nuance_de_dégradé_2-36" data-name="Nouvelle nuance de dégradé 2" x1="152.09" y1="912.92" x2="309.25" y2="912.92" xlink:href="#Nouvelle_nuance_de_dégradé_2"/>
    <linearGradient id="Nouvelle_nuance_de_dégradé_1-51" data-name="Nouvelle nuance de dégradé 1" x1="125.95" y1="1059.49" x2="-1.54" y2="985.72" xlink:href="#Nouvelle_nuance_de_dégradé_1"/>
    <linearGradient id="Nouvelle_nuance_de_dégradé_2-37" data-name="Nouvelle nuance de dégradé 2" x1="-25.75" y1="1030.5" x2="117.36" y2="1030.5" xlink:href="#Nouvelle_nuance_de_dégradé_2"/>
    <linearGradient id="Nouvelle_nuance_de_dégradé_1-52" data-name="Nouvelle nuance de dégradé 1" x1="248.97" y1="1080.63" x2="97.46" y2="992.95" xlink:href="#Nouvelle_nuance_de_dégradé_1"/>
    <linearGradient id="Nouvelle_nuance_de_dégradé_2-38" data-name="Nouvelle nuance de dégradé 2" x1="95.21" y1="1051.27" x2="233.28" y2="1051.27" xlink:href="#Nouvelle_nuance_de_dégradé_2"/>
    <linearGradient id="Nouvelle_nuance_de_dégradé_1-53" data-name="Nouvelle nuance de dégradé 1" x1="268.39" y1="1003.71" x2="150.26" y2="935.35" xlink:href="#Nouvelle_nuance_de_dégradé_1"/>
    <linearGradient id="Nouvelle_nuance_de_dégradé_2-39" data-name="Nouvelle nuance de dégradé 2" x1="154.29" y1="965.67" x2="269.31" y2="965.67" xlink:href="#Nouvelle_nuance_de_dégradé_2"/>
    <linearGradient id="Nouvelle_nuance_de_dégradé_1-54" data-name="Nouvelle nuance de dégradé 1" x1="336.94" y1="912.27" x2="216.07" y2="842.33" xlink:href="#Nouvelle_nuance_de_dégradé_1"/>
    <linearGradient id="Nouvelle_nuance_de_dégradé_2-40" data-name="Nouvelle nuance de dégradé 2" x1="205.44" y1="884.48" x2="345.17" y2="884.48" xlink:href="#Nouvelle_nuance_de_dégradé_2"/>
    <linearGradient id="Nouvelle_nuance_de_dégradé_1-55" data-name="Nouvelle nuance de dégradé 1" x1="121.66" y1="1009.82" x2="-21.06" y2="927.23" xlink:href="#Nouvelle_nuance_de_dégradé_1"/>
    <linearGradient id="Nouvelle_nuance_de_dégradé_2-41" data-name="Nouvelle nuance de dégradé 2" x1="-13.35" y1="983.79" x2="92.31" y2="983.79" xlink:href="#Nouvelle_nuance_de_dégradé_2"/>
    <linearGradient id="Nouvelle_nuance_de_dégradé_1-56" data-name="Nouvelle nuance de dégradé 1" x1="183.93" y1="985.71" x2="29.73" y2="896.48" xlink:href="#Nouvelle_nuance_de_dégradé_1"/>
    <linearGradient id="Nouvelle_nuance_de_dégradé_2-42" data-name="Nouvelle nuance de dégradé 2" x1="24.7" y1="955.96" x2="166.69" y2="955.96" xlink:href="#Nouvelle_nuance_de_dégradé_2"/>
    <linearGradient id="Nouvelle_nuance_de_dégradé_1-57" data-name="Nouvelle nuance de dégradé 1" x1="199.87" y1="935.49" x2="103.13" y2="879.51" xlink:href="#Nouvelle_nuance_de_dégradé_1"/>
    <linearGradient id="Nouvelle_nuance_de_dégradé_2-43" data-name="Nouvelle nuance de dégradé 2" x1="97.5" y1="914.78" x2="208.73" y2="914.78" xlink:href="#Nouvelle_nuance_de_dégradé_2"/>
    <linearGradient id="Nouvelle_nuance_de_dégradé_1-58" data-name="Nouvelle nuance de dégradé 1" x1="157.82" y1="901.19" x2="92.86" y2="863.6" xlink:href="#Nouvelle_nuance_de_dégradé_1"/>
    <linearGradient id="Nouvelle_nuance_de_dégradé_2-44" data-name="Nouvelle nuance de dégradé 2" x1="87.43" y1="891.81" x2="163.43" y2="891.81" xlink:href="#Nouvelle_nuance_de_dégradé_2"/>
    <linearGradient id="Nouvelle_nuance_de_dégradé_1-59" data-name="Nouvelle nuance de dégradé 1" x1="74.84" y1="958.26" x2="10.01" y2="920.74" xlink:href="#Nouvelle_nuance_de_dégradé_1"/>
    <linearGradient id="Nouvelle_nuance_de_dégradé_2-45" data-name="Nouvelle nuance de dégradé 2" x1="14.43" y1="938.06" x2="69.33" y2="938.06" xlink:href="#Nouvelle_nuance_de_dégradé_2"/>
    <linearGradient id="Nouvelle_nuance_de_dégradé_1-60" data-name="Nouvelle nuance de dégradé 1" x1="111.22" y1="899.7" x2="42.49" y2="859.93" xlink:href="#Nouvelle_nuance_de_dégradé_1"/>
    <linearGradient id="Nouvelle_nuance_de_dégradé_2-46" data-name="Nouvelle nuance de dégradé 2" x1="39.71" y1="893.1" x2="117.85" y2="893.1" xlink:href="#Nouvelle_nuance_de_dégradé_2"/>
    <linearGradient id="Nouvelle_nuance_de_dégradé_1-61" data-name="Nouvelle nuance de dégradé 1" x1="79.62" y1="918.4" x2="7.19" y2="876.48" xlink:href="#Nouvelle_nuance_de_dégradé_1"/>
    <linearGradient id="Nouvelle_nuance_de_dégradé_2-47" data-name="Nouvelle nuance de dégradé 2" x1="13.23" y1="906.72" x2="69.39" y2="906.72" xlink:href="#Nouvelle_nuance_de_dégradé_2"/>
    <linearGradient id="Nouvelle_nuance_de_dégradé_1-62" data-name="Nouvelle nuance de dégradé 1" x1="64.84" y1="1828.07" x2="4.32" y2="1793.05" xlink:href="#Nouvelle_nuance_de_dégradé_1"/>
    <linearGradient id="Nouvelle_nuance_de_dégradé_2-48" data-name="Nouvelle nuance de dégradé 2" x1="2.16" y1="1822.08" x2="69.45" y2="1822.08" xlink:href="#Nouvelle_nuance_de_dégradé_2"/>
    <linearGradient id="Nouvelle_nuance_de_dégradé_1-63" data-name="Nouvelle nuance de dégradé 1" x1="88.62" y1="1714.36" x2="-10.4" y2="1657.06" xlink:href="#Nouvelle_nuance_de_dégradé_1"/>
    <linearGradient id="Nouvelle_nuance_de_dégradé_2-49" data-name="Nouvelle nuance de dégradé 2" x1="5.58" y1="1681.67" x2="82.6" y2="1681.67" xlink:href="#Nouvelle_nuance_de_dégradé_2"/>
    <linearGradient id="Nouvelle_nuance_de_dégradé_1-64" data-name="Nouvelle nuance de dégradé 1" x1="62.42" y1="1381.59" x2="10.21" y2="1351.38" xlink:href="#Nouvelle_nuance_de_dégradé_1"/>
    <linearGradient id="Nouvelle_nuance_de_dégradé_2-50" data-name="Nouvelle nuance de dégradé 2" x1="12.09" y1="1359.98" x2="69.1" y2="1359.98" xlink:href="#Nouvelle_nuance_de_dégradé_2"/>
    <linearGradient id="Nouvelle_nuance_de_dégradé_1-65" data-name="Nouvelle nuance de dégradé 1" x1="723.85" y1="909.24" x2="592.84" y2="833.42" gradientTransform="translate(2631.6 2518.74) rotate(-167.85)" xlink:href="#Nouvelle_nuance_de_dégradé_1"/>
    <linearGradient id="Nouvelle_nuance_de_dégradé_2-51" data-name="Nouvelle nuance de dégradé 2" x1="597.23" y1="875.12" x2="741.19" y2="875.12" gradientTransform="translate(2631.6 2518.74) rotate(-167.85)" xlink:href="#Nouvelle_nuance_de_dégradé_2"/>
    <linearGradient id="Nouvelle_nuance_de_dégradé_1-66" data-name="Nouvelle nuance de dégradé 1" x1="-887.43" y1="-127.85" x2="-924.91" y2="-149.54" gradientTransform="translate(2446.66 1738.59) rotate(92.99)" xlink:href="#Nouvelle_nuance_de_dégradé_1"/>
    <linearGradient id="Nouvelle_nuance_de_dégradé_2-52" data-name="Nouvelle nuance de dégradé 2" x1="-935.68" y1="-133.81" x2="-872.22" y2="-133.81" gradientTransform="translate(2446.66 1738.59) rotate(92.99)" xlink:href="#Nouvelle_nuance_de_dégradé_2"/>
  </defs>
  <path class="cls-24" d="M2564.76,1111.37c12.34-17.5-18.85-101-18.85-101l-122.81-122s19,132.5,0,153-14,59.5-14,59.5l111.83,21.5-24.35,62,68.19-73Z"/>
  <path class="cls-59" d="M2512.65,1199.37s31.11-23.5,24.28-53.5c-6.83-30-85.64-132.5-85.64-132.5l-137.19-32.5,51.52,131.5s.48,101.53,57.48,104.52,89.54-17.52,89.54-17.52Z"/>
  <path class="cls-21" d="M2403.6,1357.37c17.5-9.5,44.5-24.5,44.5-24.5l8.73-66.39-91.21-167.46h-71.02s64.5,76.88,40,117.86,53.61,79.79,53.61,79.79l20.29,60.7h-4.91Z"/>
  <path class="cls-23" d="M2284.1,1450.87s64.04,55.52,81.52,28.76c17.48-26.76,22.59-80.26,22.59-80.26l-170.11-189.5s41,107,29.5,131,36.5,110,36.5,110Z"/>
  <polygon class="cls-53" points="2339.6 1217.18 2339.6 1157.12 2251.6 1145.87 2295.6 1216.89 2283.6 1246.4 2339.6 1217.18"/>
  <polygon class="cls-12" points="2174.6 1461.66 2251.6 1438.28 2275.6 1357.37 2166.6 1301.74 2146.37 1216.89 2130.6 1340.87 2179.5 1465.36 2174.6 1461.66"/>
  <path class="cls-16" d="M2073.6,1471.87l42.67,32,23.17-16.95s5.59-141.82-57.62-185.19l-80.22-47.33s71,100.97,40,146.97l-48-66.51,6.67,107.86,41.44,50.25,31.89-21.1Z"/>
  <path class="cls-4" d="M1855.1,1495.81l81.59-15.55-27.09-122.88-80-94,30.67,94-41.33,17.06s-48.67,71.05,12,112.5,24.17,8.88,24.17,8.88Z"/>
  <path class="cls-9" d="M1552.6,1532.37l87.94,33.25s139.73-62.58,106.4-129.92-12-94.83-12-94.83l26.67-29.24-121.06,74.04-72.27-37.27,53.33,116.96-77.33,22.36-74.67,20.25,39.5,36.6,43.5-12.19Z"/>
  <polygon class="cls-20" points="2146.37 1196.14 2193.6 1275.67 2193.6 1167.74 2146.37 1196.14"/>
  <polygon class="cls-50" points="2210.6 1091.37 2265.1 1122.37 2251.6 1062.87 2295.6 1062.87 2244.6 1023.37 2146.37 1046.37 2218.1 1062.87 2210.6 1091.37"/>
  <polygon class="cls-41" points="2162.37 1129.04 2182.6 1099.37 2162.37 1099.37 2162.37 1135.7 2162.37 1129.04"/>
  <polygon class="cls-60" points="2091.87 1228.2 2098.94 1263.37 2056.79 1254.4 2056.86 1240.36 2091.87 1228.2"/>
  <polygon class="cls-28" points="1955.94 1410.8 1979.6 1348.4 1945.6 1311.63 1979.6 1290.37 1888.27 1275.67 1955.94 1410.8"/>
  <path class="cls-25" d="M2377.39,1425.81s85.5,12.9,94-15.55-101.5-110.91-101-137.18l-19-108.47s-56.5,87.28-52,116.74,53,109.47,53,109.47l-93-63.91,51,69.83,67,29.07Z"/>
  <path class="cls-30" d="M2142.1,1521.32s12,25.29,64.5,17.42c52.5-7.87,95.77,19.71,115.64-4.08,19.86-23.79,21.86-45.84,21.86-45.84,0,0-28-63.63-79-77.29-51-13.66-53-70.66-53-70.66l10.5,115.47s-98.5-11.47-100.5-49.47c0,0-4,107.9,20,114.45s0,0,0,0"/>
  <path class="cls-56" d="M2416.1,1227.37s97,86.5,173,71.5,131-15,131-15c0,0-130-217-168-211s-83-13-90-38l58.83,132.87-126.83-37.87,22,97.5Z"/>
  <path class="cls-46" d="M2146.37,1586.56s-62.77-105.38-58.27-133.04l-.23-54.16s-87.27,71.23-67.77,109.37,120,77.83,120,77.83"/>
  <path class="cls-29" d="M1877.6,1487.97s41.5,50.3,92,53.1,85.33-1.5,85.33-1.5c0,0,11.17-56.75-21.33-88.22s-93.81-42.47-90.66-80.47l13.05,76.09-100.9-47.09,22.5,88.1Z"/>
  <path class="cls-6" d="M2530.03,1021.04c-10.93-39.17-22.06-112-22.06-112l-56.24-34.12h130.37s133,37.95,128,68.95-60,107.17-60,107.17c0,0-109.14,9.17-120.07-30Z"/>
  <path class="cls-38" d="M2668.23,882.88l-81.87,27.66s-33.26-83.67-58.26-114.67-47.77-38.83-47.77-38.83h114.15l42.69,98.67,31.06,27.17Z"/>
  <polygon class="cls-34" points="2668.23 657.04 2642.6 572.37 2536.67 549.04 2637.17 675.7 2564.76 678.37 2561.18 644.87 2530.03 698.37 2580.98 725.04 2650.1 726.37 2668.23 657.04"/>
  <polygon class="cls-52" points="2471.86 726.37 2507.97 726.37 2480.33 686.37 2471.86 726.37"/>
  <polygon class="cls-51" points="2507.97 882.88 2567.07 882.88 2586.36 841.58 2451.73 811.5 2446.98 762.37 2438.94 822.62 2507.97 882.88"/>
  <polygon class="cls-65" points="2627.29 495.7 2596.16 520.37 2564.76 462.37 2512.65 462.37 2580.98 422.37 2627.29 495.7"/>
  <polygon class="cls-32" points="2623.39 443.7 2627.3 398.37 2610.1 398.87 2623.39 443.7"/>
  <path class="cls-22" d="M1659.27,1628.01l87.67-11.64s-96.83-136.5-141.83-133.5c0,0,83.83,84.19,70.92,96.1-12.92,11.9-16.75,49.05-16.75,49.05Z"/>
  <path class="cls-45" d="M1640.54,1565.62c-9.72-22.7-8.56-31.72-27.96-44.1-19.4-12.38-31.08-41.27-31.08-41.27l-29.38,56.06,38.42,44.75,49.99-15.44Z"/>
  <path class="cls-19" d="M1532.27,1544.56s4.17-49.79-24-61.74c-28.17-11.95-56-17.46-56-17.46l-25.33-36.63-13.33,64.24-42.67-6.32,16,48.01,73.33,28.22,72-18.32Z"/>
  <path class="cls-15" d="M1362.79,1556.83s-32.7,36.2-49.57,26.51c-16.87-9.69-25.78-48.21-25.78-48.21l16.87-57.4,25.33,45.8,12.8-46.53s46.99,44.99,33.32,62.32c-13.66,17.32-12.97,17.52-12.97,17.52Z"/>
  <path class="cls-37" d="M1210.6,1544.56s39.5,2.04,39-5.83,0-37.37,0-37.37l-54-24.38s30.5,31.88,19.5,42.88-4.5,24.69-4.5,24.69Z"/>
  <path class="cls-1" d="M1127.6,1544.8s41.5-10.88,37-33.9-31-54.45-31-54.45l-42,36.52s-95.5,12.87-103-4.61c0,0,78.5,70.38,139,56.45Z"/>
  <path class="cls-26" d="M2633.1,1344.54c31-13.67,21-87.67,21-87.67,0,0-23-43-68-53,0,0,25,35.73,20,45.87l-69.39-45.87s-2.29,126.22,28.05,137.61c30.34,11.39,68.34,3.05,68.34,3.05Z"/>
  <path class="cls-27" d="M2415.94,1557.48l7.17-61.61-108.5-121.44s89.5,129.44-49.5,123.44c0,0,97,66,115,65s35.83-5.39,35.83-5.39Z"/>
  <path class="cls-66" d="M2439.1,1429.64s50.37,20.02,48.19-2.03c-2.19-22.05-16.19-87.89-39.19-100.73l-32-15.25s32,57.8,14.5,67.84,8.5,50.18,8.5,50.18Z"/>
  <path class="cls-10" d="M2423.1,1375.87c15,7,42.11,26.78,49.05,9.89"/>
  <path class="cls-35" d="M2646.56,1254.4s29.54-8.53,22.54-27.03-54-48-54-48c0,0,21.57,14.53,17.28,37.52s14.18,37.52,14.18,37.52Z"/>
  <path class="cls-58" d="M2637.1,1277.87c2-29-37.72-91.5-37.72-91.5l-17.28-64s-67,71.5-49,103.5,70,105,88,81,16-29,16-29Z"/>
  <path class="cls-17" d="M2510.15,1357.37s74.8-6.5,43.88-60-75.93-138.5-72.93-151.5c0,0-5,143.73,10.5,155.87s18.55,55.63,18.55,55.63Z"/>
  <path class="cls-2" d="M2456.83,1334.64s74.02,4.96,51.15-32.91-126.37-155.87-126.37-155.87l13.5,117,61.73,71.77Z"/>
  <path class="cls-54" d="M2596.16,1133.04s35.95,32.83,54.95,21.83,33-73,19-93-77-12-85-44-18.04-62.83-18.04-62.83c0,0-10.96,85.83-2.96,109.83s30.38,64.83,30.38,64.83l1.68,3.33Z"/>
  <path class="cls-49" d="M2660.1,1034.87l-54-15.83-24-76.67s20,32.5,28,39.5,14.57,2.67,13.28-14.17c-1.28-16.83-52.22-75.33-52.22-75.33,0,0,44.93-29.5,79.93,15.5s9,123.83,9,123.83"/>
  <path class="cls-8" d="M1951.29,1560.16s55.11-7.38,60-32.56c4.89-25.17-25.5-42.47-60.5-45.26-35-2.8-50.93-20.68-50.93-20.68l18.89,43.56,32.54,54.94Z"/>
  <path class="cls-11" d="M2040.6,1538.74s23.5-4.36,14-27.61-75-73.16-75-73.16c0,0,40.5,46.4,29,64.65s32,36.12,32,36.12Z"/>
  <path class="cls-13" d="M1937.94,1554.74c4.17-7.87,2.17-38.87-60.83-66.87s-102-47-102-63v-44.49l-50.5,102.35-97.33-55.21,72,151.35,238.67-24.14Z"/>
  <polygon class="cls-40" points="976.94 1538.74 983.1 1515.87 931.1 1471.87 945.6 1505.3 887.6 1505.3 976.94 1538.74"/>
  <polygon class="cls-18" points="864.1 1492.87 913.6 1495.81 898.27 1479.63 864.1 1492.87"/>
  <path class="cls-39" d="M1274.1,1535.87c31-17,30.17-24.97,30.17-24.97l-30.17-39.03-7.17,23.94-31.83,18.06,39,22Z"/>
  <path class="cls-57" d="M1528.94,1456.44c5.17-14.57,0-20.74,0-20.74l-19.83,5.17,19.83,15.57Z"/>
  <path class="cls-42" d="M2510.15,1531.27s-56.47,14.24-73.26,3.39c-16.78-10.85-32.95-46.65-45.38-54.88-12.43-8.23-37.92-12.89-37.92-12.89,0,0,44.14,7.63,46.93,1.48,2.8-6.15-23.31-34.14-23.31-34.14,0,0,95.11,27.99,95.11,46.65l-24.24-55.98s57.81,29.86,59.68,61.58c1.86,31.72,2.39,44.79,2.39,44.79Z"/>
  <path class="cls-62" d="M2626.16,1413.07s69.78-22.49,61.11-42.41c-8.67-19.92-46.75-73.92-44.71-86.92,2.04-13-13.96,67.84-5.96,86.92,0,29.16,30.93-53.59-64.53-124.25,0,0,13.53,38.33-16.47,102.33-30,64,16.76,132.21,43.88,133.6s26.68-69.27,26.68-69.27Z"/>
  <path class="cls-5" d="M2530.27,1438.28s47.65-18.21,34.49-41.87c-13.16-23.67,27.84-49.67-49.16-94.67s-83.72-52-83.72-52c0,0,12.62,22.29,23.67,88.65,11.05,66.35-16.95,68.35,24.05,87.35s50.67,12.54,50.67,12.54Z"/>
  <path class="cls-33" d="M2443.6,1468.37s43.58,36.52,56.29,20.44,6.63-51.47,6.63-51.47c0,0-24.63-52.48-48.28-61.04s-63.64-11.56-63.64-11.56c0,0,40.55,48.08,37.28,73.54-3.28,25.46,11.72,30.1,11.72,30.1Z"/>
  <path class="cls-47" d="M2431.88,1511.07s39.1,25.67,19.41,38.67c-19.69,13-86.35,5.67-109.02-38.67l-22.67-44.33s45.67,47.77,61.33,44.39,50.94-.05,50.94-.05Z"/>
  <path class="cls-43" d="M2675.6,1467.82s-13.05-97.04-48.49-113.83c-35.43-16.8-55.95-52.25-55.95-52.25,0,0,9.32,98.28,2.8,121.92-6.53,23.64.93,81.49,21.45,92.68s65.89,0,65.89,0l14.3-48.52Z"/>
  <path class="cls-44" d="M2598.52,1530.03l24.86-4.35s24.24-57.85,9.32-74.65c-14.92-16.8-130.54-74.65-136.14-106.37l9.95,92.68s3.74,73.64,52.36,90.94c10.83,3.86,23.89,4.92,39.64,1.74Z"/>
  <path class="cls-48" d="M2562.47,1516.96s-25.69,28.62-58.85,13.07-48.07-54.74-48.07-54.74c0,0,29.84,35.46,39.16,31.72,9.32-3.73-24.24-82.11-24.24-82.11,0,0,113.76,27.99,91.38,91.44"/>
  <path class="cls-14" d="M2530.56,1536.87l43.41-8.4s-61.54-37.32-61.54-55.98-12.54,32.19-12.54,32.19l30.67,32.19Z"/>
  <path class="cls-7" d="M2639.13,1501.88l8.5-34.99s2.8-22.39-12.12-37.32c-14.92-14.93-41.03-18.77-41.03-18.77,0,0,35.43,52.36,31.7,67.28-3.73,14.93,12.95,23.79,12.95,23.79Z"/>
  <path class="cls-63" d="M2581.43,1500.48c-16.78-13.06-22.38-33.59-22.38-33.59l-13.57,33.59,23.21,36.39h53.07l-40.33-36.39Z"/>
  <path class="cls-64" d="M2647.63,1536.87s8.39-38.26-15.85-56.92c-24.24-18.66-37.3-39.19-37.3-39.19,0,0,11.19,50.39,7.46,57.85-3.73,7.46,13.99,38.26,13.99,38.26h31.7Z"/>
  <polygon class="cls-31" points="2594.48 624.37 2660.1 602.87 2660.1 542.37 2616.96 520.37 2627.29 572.37 2594.48 624.37"/>
  <path class="cls-55" d="M2606.1,751.87l46,29s20.38-113-24.81-124.5l-45.19-11.5s45,38.75,45,59c0,24-21,48-21,48Z"/>
  <path class="cls-36" d="M2650.1,1051.04l-15,11.83s-20-9-25-31c-8-23-14-23-14-23l28,12s6,2-2-11c0,0,24-11,23,4s5,37.17,5,37.17Z"/>
  <path class="cls-3" d="M2218.97,1595.58l13.89-64.51-60.25-32.94,6.89-32.78s-52.84,7.07-43.84,46.82c0,0-32.92-24.47-31.79-43.16,0,0-27.03,55.04.06,67.01,27.09,11.97,115.04,59.55,115.04,59.55Z"/>
  <path class="cls-61" d="M2665.93,835.23l-42.07-23.73-37.51,30.08s11.9-12.9,26.34-2.63c14.45,10.27,14.62,45.32,39.26,33.6,24.65-11.73,13.97-37.32,13.97-37.32Z"/>
</svg>